<svg xmlns="http://www.w3.org/2000/svg" xmlns:xlink="http://www.w3.org/1999/xlink" width="830" height="420.78"><rect width="830" height="420.78" rx="0" ry="0" class="a"/><svg height="390.78" viewBox="0 0 80 39.078" width="800" x="15" xmlns="http://www.w3.org/2000/svg" xmlns:xlink="http://www.w3.org/1999/xlink" y="15"><style>@keyframes j{0%{transform:translateX(0)}.1%{transform:translateX(-160px)}1.7%{transform:translateX(-240px)}2.5%{transform:translateX(-320px)}3.3%{transform:translateX(-400px)}4%{transform:translateX(-480px)}4.8%{transform:translateX(-560px)}5.6%{transform:translateX(-640px)}6.4%{transform:translateX(-720px)}7.3%{transform:translateX(-800px)}8.1%{transform:translateX(-880px)}8.8%{transform:translateX(-960px)}9.6%{transform:translateX(-1040px)}10.4%{transform:translateX(-1120px)}12%{transform:translateX(-1200px)}12.8%{transform:translateX(-1280px)}13.7%{transform:translateX(-1360px)}14.5%{transform:translateX(-1440px)}15.3%{transform:translateX(-1520px)}16.1%{transform:translateX(-1600px)}16.9%{transform:translateX(-1680px)}17.7%{transform:translateX(-1760px)}18.4%{transform:translateX(-1840px)}19.2%{transform:translateX(-1920px)}20%{transform:translateX(-2000px)}20.8%{transform:translateX(-2080px)}21.6%{transform:translateX(-2160px)}23.2%{transform:translateX(-2240px)}26%{transform:translateX(-2400px)}26.7%{transform:translateX(-2640px)}27.4%{transform:translateX(-2800px)}28.1%{transform:translateX(-2960px)}28.8%{transform:translateX(-3040px)}29.4%{transform:translateX(-3680px)}35.5%{transform:translateX(-3920px)}36.2%{transform:translateX(-4080px)}36.9%{transform:translateX(-4240px)}37.6%{transform:translateX(-4320px)}37.7%{transform:translateX(-4400px)}38.4%{transform:translateX(-4560px)}39.1%{transform:translateX(-4720px)}39.8%{transform:translateX(-4880px)}40.5%{transform:translateX(-5040px)}41.2%{transform:translateX(-5200px)}41.9%{transform:translateX(-5360px)}42.6%{transform:translateX(-5520px)}43.3%{transform:translateX(-5680px)}44%{transform:translateX(-5840px)}44.7%{transform:translateX(-6000px)}45.4%{transform:translateX(-6160px)}46.1%{transform:translateX(-6400px)}46.8%{transform:translateX(-6640px)}47.5%{transform:translateX(-6800px)}48.3%{transform:translateX(-6960px)}49%{transform:translateX(-7120px)}49.7%{transform:translateX(-7280px)}50.4%{transform:translateX(-7440px)}51.1%{transform:translateX(-7600px)}51.2%{transform:translateX(-7760px)}51.5%{transform:translateX(-7840px)}51.7%{transform:translateX(-7920px)}60.3%{transform:translateX(-8000px)}61.9%{transform:translateX(-8080px)}62.7%{transform:translateX(-8160px)}63.5%{transform:translateX(-8240px)}64.3%{transform:translateX(-8320px)}65.1%{transform:translateX(-8400px)}65.9%{transform:translateX(-8480px)}66.7%{transform:translateX(-8560px)}67.5%{transform:translateX(-8640px)}68.3%{transform:translateX(-8720px)}69.1%{transform:translateX(-8800px)}69.9%{transform:translateX(-8880px)}70.7%{transform:translateX(-8960px)}72.2%{transform:translateX(-9040px)}72.3%{transform:translateX(-9280px)}81%{transform:translateX(-9360px)}82.6%{transform:translateX(-9440px)}83.4%{transform:translateX(-9520px)}84.2%{transform:translateX(-9600px)}85%{transform:translateX(-9680px)}85.8%{transform:translateX(-9760px)}86.6%{transform:translateX(-9840px)}87.4%{transform:translateX(-9920px)}88.1%{transform:translateX(-10000px)}88.9%{transform:translateX(-10080px)}89.7%{transform:translateX(-10160px)}90.5%{transform:translateX(-10240px)}91.3%{transform:translateX(-10320px)}91.4%{transform:translateX(-10400px)}to{transform:translateX(-10480px)}}.a{fill:#282d35}.c{fill:#a8cc8c}.d{fill:#b9c0cb}.e{fill:#71bef2}.f{fill:#66c2cd}.g{fill:#b9c0cb;font-weight:700}</style><g font-size="1.67" font-family="Monaco,Consolas,Menlo,'Bitstream Vera Sans Mono','Powerline Symbols',monospace"><defs><symbol id="17"><text y="1.67" class="d">✨</text><text x="2.004" y="1.67" class="g">altmp/ls-gangwar</text><text x="19.038" y="1.67" class="d">was</text><text x="23.046" y="1.67" class="d">successfully</text><text x="36.072" y="1.67" class="d">installed</text><text x="46.092" y="1.67" class="d">to</text><text x="49.098" y="1.67" class="d">the</text><text x="53.106" y="1.67" class="d">latest</text><text x="60.12" y="1.67" class="d">version.</text></symbol><symbol id="1"><text y="1.67" class="c">~</text></symbol><symbol id="3"><text y="1.67" class="c">~</text><text x="2.004" y="1.67" class="d">altvrd</text><text x="9.018" y="1.67" class="d">install</text></symbol><symbol id="4"><text y="1.67" class="c">~</text><text x="2.004" y="1.67" class="d">altvrd</text><text x="9.018" y="1.67" class="d">install</text><text x="17.034" y="1.67" class="d">altmp/ls-gangwar</text></symbol><symbol id="5"><text y="1.67" class="e">ℹ</text><text x="2.004" y="1.67" class="d">Fetching</text><text x="11.022" y="1.67" class="d">altmp/ls-gangwar</text><text x="28.056" y="1.67" class="d">from</text><text x="33.066" y="1.67" class="d">GitHub.</text></symbol><symbol id="6"><text y="1.67" class="e">ℹ</text><text x="2.004" y="1.67" class="d">This</text><text x="7.014" y="1.67" class="d">resource</text><text x="16.032" y="1.67" class="d">doesn&apos;t</text><text x="24.048" y="1.67" class="d">use</text><text x="28.056" y="1.67" class="d">releases.</text><text x="38.076" y="1.67" class="d">Downloading</text><text x="50.1" y="1.67" class="d">from</text><text x="55.11" y="1.67" class="d">master.</text></symbol><symbol id="7"><text y="1.67" class="f">⠋</text><text x="2.004" y="1.67" class="d">Downloaded</text><text x="13.026" y="1.67" class="d">the</text><text x="17.034" y="1.67" class="d">resource.</text><text x="27.054" y="1.67" class="d">Installing</text><text x="38.076" y="1.67" class="d">it.</text></symbol><symbol id="8"><text y="1.67" class="f">⠙</text><text x="2.004" y="1.67" class="d">Downloaded</text><text x="13.026" y="1.67" class="d">the</text><text x="17.034" y="1.67" class="d">resource.</text><text x="27.054" y="1.67" class="d">Installing</text><text x="38.076" y="1.67" class="d">it.</text></symbol><symbol id="9"><text y="1.67" class="f">⠹</text><text x="2.004" y="1.67" class="d">Downloaded</text><text x="13.026" y="1.67" class="d">the</text><text x="17.034" y="1.67" class="d">resource.</text><text x="27.054" y="1.67" class="d">Installing</text><text x="38.076" y="1.67" class="d">it.</text></symbol><symbol id="10"><text y="1.67" class="f">⠸</text><text x="2.004" y="1.67" class="d">Downloaded</text><text x="13.026" y="1.67" class="d">the</text><text x="17.034" y="1.67" class="d">resource.</text><text x="27.054" y="1.67" class="d">Installing</text><text x="38.076" y="1.67" class="d">it.</text></symbol><symbol id="11"><text y="1.67" class="f">⠼</text><text x="2.004" y="1.67" class="d">Downloaded</text><text x="13.026" y="1.67" class="d">the</text><text x="17.034" y="1.67" class="d">resource.</text><text x="27.054" y="1.67" class="d">Installing</text><text x="38.076" y="1.67" class="d">it.</text></symbol><symbol id="12"><text y="1.67" class="f">⠴</text><text x="2.004" y="1.67" class="d">Downloaded</text><text x="13.026" y="1.67" class="d">the</text><text x="17.034" y="1.67" class="d">resource.</text><text x="27.054" y="1.67" class="d">Installing</text><text x="38.076" y="1.67" class="d">it.</text></symbol><symbol id="13"><text y="1.67" class="f">⠦</text><text x="2.004" y="1.67" class="d">Downloaded</text><text x="13.026" y="1.67" class="d">the</text><text x="17.034" y="1.67" class="d">resource.</text><text x="27.054" y="1.67" class="d">Installing</text><text x="38.076" y="1.67" class="d">it.</text></symbol><symbol id="14"><text y="1.67" class="f">⠧</text><text x="2.004" y="1.67" class="d">Downloaded</text><text x="13.026" y="1.67" class="d">the</text><text x="17.034" y="1.67" class="d">resource.</text><text x="27.054" y="1.67" class="d">Installing</text><text x="38.076" y="1.67" class="d">it.</text></symbol><symbol id="15"><text y="1.67" class="f">⠇</text><text x="2.004" y="1.67" class="d">Downloaded</text><text x="13.026" y="1.67" class="d">the</text><text x="17.034" y="1.67" class="d">resource.</text><text x="27.054" y="1.67" class="d">Installing</text><text x="38.076" y="1.67" class="d">it.</text></symbol><symbol id="16"><text y="1.67" class="f">⠏</text><text x="2.004" y="1.67" class="d">Downloaded</text><text x="13.026" y="1.67" class="d">the</text><text x="17.034" y="1.67" class="d">resource.</text><text x="27.054" y="1.67" class="d">Installing</text><text x="38.076" y="1.67" class="d">it.</text></symbol><symbol id="2"><text y="1.67" class="c">~</text><text x="2.004" y="1.67" class="d">altvrd</text></symbol><symbol id="18"><text y="1.67" class="e">ℹ</text><text x="2.004" y="1.67" class="d">Add</text><text x="6.012" y="1.67" class="d">&quot;altmp@ls-gangwar&quot;</text><text x="25.05" y="1.67" class="d">to</text><text x="28.056" y="1.67" class="d">your</text><text x="33.066" y="1.67" class="d">.cfg</text><text x="38.076" y="1.67" class="d">file</text><text x="43.086" y="1.67" class="d">(under</text><text x="50.1" y="1.67" class="g">resources</text><text x="59.118" y="1.67" class="d">)</text><text x="61.122" y="1.67" class="d">section</text><text x="69.138" y="1.67" class="d">to</text><text x="72.144" y="1.67" class="d">use</text><text x="76.152" y="1.67" class="d">it.</text></symbol><symbol id="19"><text y="1.67" class="c">~</text><text x="2.004" y="1.67" class="d">cat</text></symbol><symbol id="20"><text y="1.67" class="c">~</text><text x="2.004" y="1.67" class="d">cat</text><text x="6.012" y="1.67" class="d">altvrd.json</text></symbol><symbol id="21"><text y="1.67" class="d">{</text></symbol><symbol id="22"><text x="2.004" y="1.67" class="d">&quot;resources&quot;:</text><text x="15.03" y="1.67" class="d">{</text></symbol><symbol id="23"><text x="4.008" y="1.67" class="d">&quot;altmp/ls-gangwar&quot;:</text><text x="24.048" y="1.67" class="d">{</text></symbol><symbol id="24"><text x="6.012" y="1.67" class="d">&quot;url&quot;:</text><text x="13.026" y="1.67" class="d">&quot;https://github.com/altmp/ls-gangwar/archive/master.zip&quot;,</text></symbol><symbol id="25"><text x="6.012" y="1.67" class="d">&quot;folder&quot;:</text><text x="16.032" y="1.67" class="d">&quot;altmp@ls-gangwar&quot;</text></symbol><symbol id="26"><text x="4.008" y="1.67" class="d">}</text></symbol><symbol id="27"><text x="2.004" y="1.67" class="d">}</text></symbol><symbol id="28"><text y="1.67" class="d">}</text></symbol><symbol id="29"><text y="1.67" class="c">~</text><text x="2.004" y="1.67" class="d">ls</text></symbol><symbol id="30"><text y="1.67" class="c">~</text><text x="2.004" y="1.67" class="d">ls</text><text x="5.01" y="1.67" class="d">resources/</text></symbol><symbol id="31"><text y="1.67" class="d">altmp@ls-gangwar</text></symbol><symbol id="a"><path fill="transparent" d="M0 0h80v19H0z"/></symbol><symbol id="b"><path fill="#6f7683" d="M0 0h1.102v2.171H0z"/></symbol></defs><path class="a" d="M0 0h80v39.078H0z"/><g style="animation-duration:11.668887s;animation-iteration-count:infinite;animation-name:j;animation-timing-function:steps(1,end)"><svg width="10560"><svg><use xlink:href="#a"/><use xlink:href="#b" x="-.004"/></svg><svg x="80"><use xlink:href="#a"/><use xlink:href="#b" x="1.996"/><use xlink:href="#1"/></svg><svg x="160"><use xlink:href="#a"/><use xlink:href="#b" x="2.996"/><text y="1.67" class="c">~</text><text x="2.004" y="1.67" class="d">a</text></svg><svg x="240"><use xlink:href="#a"/><use xlink:href="#b" x="3.996"/><text y="1.67" class="c">~</text><text x="2.004" y="1.67" class="d">al</text></svg><svg x="320"><use xlink:href="#a"/><use xlink:href="#b" x="4.996"/><text y="1.67" class="c">~</text><text x="2.004" y="1.67" class="d">alt</text></svg><svg x="400"><use xlink:href="#a"/><use xlink:href="#b" x="5.996"/><text y="1.67" class="c">~</text><text x="2.004" y="1.67" class="d">altv</text></svg><svg x="480"><use xlink:href="#a"/><use xlink:href="#b" x="7.996"/><use xlink:href="#2"/></svg><svg x="560"><use xlink:href="#a"/><use xlink:href="#b" x="8.996"/><use xlink:href="#2"/></svg><svg x="640"><use xlink:href="#a"/><use xlink:href="#b" x="9.996"/><text y="1.67" class="c">~</text><text x="2.004" y="1.67" class="d">altvrd</text><text x="9.018" y="1.67" class="d">i</text></svg><svg x="720"><use xlink:href="#a"/><use xlink:href="#b" x="10.996"/><text y="1.67" class="c">~</text><text x="2.004" y="1.67" class="d">altvrd</text><text x="9.018" y="1.67" class="d">in</text></svg><svg x="800"><use xlink:href="#a"/><use xlink:href="#b" x="11.996"/><text y="1.67" class="c">~</text><text x="2.004" y="1.67" class="d">altvrd</text><text x="9.018" y="1.67" class="d">ins</text></svg><svg x="880"><use xlink:href="#a"/><use xlink:href="#b" x="13.996"/><text y="1.67" class="c">~</text><text x="2.004" y="1.67" class="d">altvrd</text><text x="9.018" y="1.67" class="d">insta</text></svg><svg x="960"><use xlink:href="#a"/><use xlink:href="#b" x="14.996"/><text y="1.67" class="c">~</text><text x="2.004" y="1.67" class="d">altvrd</text><text x="9.018" y="1.67" class="d">instal</text></svg><svg x="1040"><use xlink:href="#a"/><use xlink:href="#b" x="15.996"/><use xlink:href="#3"/></svg><svg x="1120"><use xlink:href="#a"/><use xlink:href="#b" x="16.996"/><use xlink:href="#3"/></svg><svg x="1200"><use xlink:href="#a"/><use xlink:href="#b" x="17.996"/><text y="1.67" class="c">~</text><text x="2.004" y="1.67" class="d">altvrd</text><text x="9.018" y="1.67" class="d">install</text><text x="17.034" y="1.67" class="d">a</text></svg><svg x="1280"><use xlink:href="#a"/><use xlink:href="#b" x="19.996"/><text y="1.67" class="c">~</text><text x="2.004" y="1.67" class="d">altvrd</text><text x="9.018" y="1.67" class="d">install</text><text x="17.034" y="1.67" class="d">alt</text></svg><svg x="1360"><use xlink:href="#a"/><use xlink:href="#b" x="20.996"/><text y="1.67" class="c">~</text><text x="2.004" y="1.67" class="d">altvrd</text><text x="9.018" y="1.67" class="d">install</text><text x="17.034" y="1.67" class="d">altm</text></svg><svg x="1440"><use xlink:href="#a"/><use xlink:href="#b" x="21.996"/><text y="1.67" class="c">~</text><text x="2.004" y="1.67" class="d">altvrd</text><text x="9.018" y="1.67" class="d">install</text><text x="17.034" y="1.67" class="d">altmp</text></svg><svg x="1520"><use xlink:href="#a"/><use xlink:href="#b" x="22.996"/><text y="1.67" class="c">~</text><text x="2.004" y="1.67" class="d">altvrd</text><text x="9.018" y="1.67" class="d">install</text><text x="17.034" y="1.67" class="d">altmp/</text></svg><svg x="1600"><use xlink:href="#a"/><use xlink:href="#b" x="23.996"/><text y="1.67" class="c">~</text><text x="2.004" y="1.67" class="d">altvrd</text><text x="9.018" y="1.67" class="d">install</text><text x="17.034" y="1.67" class="d">altmp/l</text></svg><svg x="1680"><use xlink:href="#a"/><use xlink:href="#b" x="25.996"/><text y="1.67" class="c">~</text><text x="2.004" y="1.67" class="d">altvrd</text><text x="9.018" y="1.67" class="d">install</text><text x="17.034" y="1.67" class="d">altmp/ls-</text></svg><svg x="1760"><use xlink:href="#a"/><use xlink:href="#b" x="26.996"/><text y="1.67" class="c">~</text><text x="2.004" y="1.67" class="d">altvrd</text><text x="9.018" y="1.67" class="d">install</text><text x="17.034" y="1.67" class="d">altmp/ls-g</text></svg><svg x="1840"><use xlink:href="#a"/><use xlink:href="#b" x="27.996"/><text y="1.67" class="c">~</text><text x="2.004" y="1.67" class="d">altvrd</text><text x="9.018" y="1.67" class="d">install</text><text x="17.034" y="1.67" class="d">altmp/ls-ga</text></svg><svg x="1920"><use xlink:href="#a"/><use xlink:href="#b" x="28.996"/><text y="1.67" class="c">~</text><text x="2.004" y="1.67" class="d">altvrd</text><text x="9.018" y="1.67" class="d">install</text><text x="17.034" y="1.67" class="d">altmp/ls-gan</text></svg><svg x="2000"><use xlink:href="#a"/><use xlink:href="#b" x="29.996"/><text y="1.67" class="c">~</text><text x="2.004" y="1.67" class="d">altvrd</text><text x="9.018" y="1.67" class="d">install</text><text x="17.034" y="1.67" class="d">altmp/ls-gang</text></svg><svg x="2080"><use xlink:href="#a"/><use xlink:href="#b" x="31.996"/><text y="1.67" class="c">~</text><text x="2.004" y="1.67" class="d">altvrd</text><text x="9.018" y="1.67" class="d">install</text><text x="17.034" y="1.67" class="d">altmp/ls-gangwa</text></svg><svg x="2160"><use xlink:href="#a"/><use xlink:href="#b" x="32.996"/><use xlink:href="#4"/></svg><svg x="2240"><use xlink:href="#a"/><use xlink:href="#b" x="-.004" y="2.146"/><use xlink:href="#4"/></svg><svg x="2320"><use xlink:href="#a"/><use xlink:href="#4"/></svg><svg x="2400"><use xlink:href="#a"/><use xlink:href="#4"/><text y="3.841" class="f">⠋</text><text x="2.004" y="3.841" class="d">Checking</text><text x="11.022" y="3.841" class="d">version</text><text x="19.038" y="3.841" class="d">of</text><text x="22.044" y="3.841" class="g">altvrd</text><text x="28.056" y="3.841" class="d">,</text><text x="30.06" y="3.841" class="d">this</text><text x="35.07" y="3.841" class="d">won&apos;t</text><text x="41.082" y="3.841" class="d">take</text><text x="46.092" y="3.841" class="d">long.</text></svg><svg x="2480"><use xlink:href="#a"/><use xlink:href="#4"/></svg><svg x="2560"><use xlink:href="#a"/><use xlink:href="#4"/></svg><svg x="2640"><use xlink:href="#a"/><use xlink:href="#4"/><text y="3.841" class="f">⠙</text><text x="2.004" y="3.841" class="d">Checking</text><text x="11.022" y="3.841" class="d">version</text><text x="19.038" y="3.841" class="d">of</text><text x="22.044" y="3.841" class="g">altvrd</text><text x="28.056" y="3.841" class="d">,</text><text x="30.06" y="3.841" class="d">this</text><text x="35.07" y="3.841" class="d">won&apos;t</text><text x="41.082" y="3.841" class="d">take</text><text x="46.092" y="3.841" class="d">long.</text></svg><svg x="2720"><use xlink:href="#a"/><use xlink:href="#4"/></svg><svg x="2800"><use xlink:href="#a"/><use xlink:href="#4"/><text y="3.841" class="f">⠹</text><text x="2.004" y="3.841" class="d">Checking</text><text x="11.022" y="3.841" class="d">version</text><text x="19.038" y="3.841" class="d">of</text><text x="22.044" y="3.841" class="g">altvrd</text><text x="28.056" y="3.841" class="d">,</text><text x="30.06" y="3.841" class="d">this</text><text x="35.07" y="3.841" class="d">won&apos;t</text><text x="41.082" y="3.841" class="d">take</text><text x="46.092" y="3.841" class="d">long.</text></svg><svg x="2880"><use xlink:href="#a"/><use xlink:href="#4"/></svg><svg x="2960"><use xlink:href="#a"/><use xlink:href="#4"/><text y="3.841" class="f">⠸</text><text x="2.004" y="3.841" class="d">Checking</text><text x="11.022" y="3.841" class="d">version</text><text x="19.038" y="3.841" class="d">of</text><text x="22.044" y="3.841" class="g">altvrd</text><text x="28.056" y="3.841" class="d">,</text><text x="30.06" y="3.841" class="d">this</text><text x="35.07" y="3.841" class="d">won&apos;t</text><text x="41.082" y="3.841" class="d">take</text><text x="46.092" y="3.841" class="d">long.</text></svg><svg x="3040"><use xlink:href="#a"/><use xlink:href="#4"/><text y="3.841" class="f">⠼</text><text x="2.004" y="3.841" class="d">Checking</text><text x="11.022" y="3.841" class="d">version</text><text x="19.038" y="3.841" class="d">of</text><text x="22.044" y="3.841" class="g">altvrd</text><text x="28.056" y="3.841" class="d">,</text><text x="30.06" y="3.841" class="d">this</text><text x="35.07" y="3.841" class="d">won&apos;t</text><text x="41.082" y="3.841" class="d">take</text><text x="46.092" y="3.841" class="d">long.</text></svg><svg x="3120"><use xlink:href="#a"/><use xlink:href="#4"/></svg><svg x="3200"><use xlink:href="#a"/><use xlink:href="#b" x="-.004" y="2.146"/><use xlink:href="#4"/></svg><svg x="3280"><use xlink:href="#a"/><use xlink:href="#4"/></svg><svg x="3360"><use xlink:href="#a"/><use xlink:href="#4"/><text y="3.841" class="f">⠋</text><text x="2.004" y="3.841" class="d">Reading</text><text x="10.02" y="3.841" class="d">altvrd.json...</text></svg><svg x="3440"><use xlink:href="#a"/><use xlink:href="#4"/></svg><svg x="3520"><use xlink:href="#a"/><use xlink:href="#b" x="-.004" y="2.146"/><use xlink:href="#4"/></svg><svg x="3600"><use xlink:href="#a"/><use xlink:href="#b" x="-.004" y="2.146"/><use xlink:href="#4"/></svg><svg x="3680"><use xlink:href="#a"/><use xlink:href="#b" x="-.004" y="4.317"/><use xlink:href="#4"/><use xlink:href="#5" y="2.171"/></svg><svg x="3760"><use xlink:href="#a"/><use xlink:href="#b" x="-.004" y="6.488"/><use xlink:href="#4"/><use xlink:href="#5" y="2.171"/><use xlink:href="#6" y="4.342"/></svg><svg x="3840"><use xlink:href="#a"/><use xlink:href="#4"/><use xlink:href="#5" y="2.171"/><use xlink:href="#6" y="4.342"/></svg><svg x="3920"><use xlink:href="#a"/><use xlink:href="#4"/><use xlink:href="#5" y="2.171"/><use xlink:href="#6" y="4.342"/><use xlink:href="#7" y="6.513"/></svg><svg x="4000"><use xlink:href="#a"/><use xlink:href="#4"/><use xlink:href="#5" y="2.171"/><use xlink:href="#6" y="4.342"/></svg><svg x="4080"><use xlink:href="#a"/><use xlink:href="#4"/><use xlink:href="#5" y="2.171"/><use xlink:href="#6" y="4.342"/><use xlink:href="#8" y="6.513"/></svg><svg x="4160"><use xlink:href="#a"/><use xlink:href="#4"/><use xlink:href="#5" y="2.171"/><use xlink:href="#6" y="4.342"/></svg><svg x="4240"><use xlink:href="#a"/><use xlink:href="#4"/><use xlink:href="#5" y="2.171"/><use xlink:href="#6" y="4.342"/><use xlink:href="#9" y="6.513"/></svg><svg x="4320"><use xlink:href="#a"/><use xlink:href="#4"/><use xlink:href="#5" y="2.171"/><use xlink:href="#6" y="4.342"/></svg><svg x="4400"><use xlink:href="#a"/><use xlink:href="#4"/><use xlink:href="#5" y="2.171"/><use xlink:href="#6" y="4.342"/><use xlink:href="#10" y="6.513"/></svg><svg x="4480"><use xlink:href="#a"/><use xlink:href="#4"/><use xlink:href="#5" y="2.171"/><use xlink:href="#6" y="4.342"/></svg><svg x="4560"><use xlink:href="#a"/><use xlink:href="#4"/><use xlink:href="#5" y="2.171"/><use xlink:href="#6" y="4.342"/><use xlink:href="#11" y="6.513"/></svg><svg x="4640"><use xlink:href="#a"/><use xlink:href="#4"/><use xlink:href="#5" y="2.171"/><use xlink:href="#6" y="4.342"/></svg><svg x="4720"><use xlink:href="#a"/><use xlink:href="#4"/><use xlink:href="#5" y="2.171"/><use xlink:href="#6" y="4.342"/><use xlink:href="#12" y="6.513"/></svg><svg x="4800"><use xlink:href="#a"/><use xlink:href="#4"/><use xlink:href="#5" y="2.171"/><use xlink:href="#6" y="4.342"/></svg><svg x="4880"><use xlink:href="#a"/><use xlink:href="#4"/><use xlink:href="#5" y="2.171"/><use xlink:href="#6" y="4.342"/><use xlink:href="#13" y="6.513"/></svg><svg x="4960"><use xlink:href="#a"/><use xlink:href="#4"/><use xlink:href="#5" y="2.171"/><use xlink:href="#6" y="4.342"/></svg><svg x="5040"><use xlink:href="#a"/><use xlink:href="#4"/><use xlink:href="#5" y="2.171"/><use xlink:href="#6" y="4.342"/><use xlink:href="#14" y="6.513"/></svg><svg x="5120"><use xlink:href="#a"/><use xlink:href="#4"/><use xlink:href="#5" y="2.171"/><use xlink:href="#6" y="4.342"/></svg><svg x="5200"><use xlink:href="#a"/><use xlink:href="#4"/><use xlink:href="#5" y="2.171"/><use xlink:href="#6" y="4.342"/><use xlink:href="#15" y="6.513"/></svg><svg x="5280"><use xlink:href="#a"/><use xlink:href="#4"/><use xlink:href="#5" y="2.171"/><use xlink:href="#6" y="4.342"/></svg><svg x="5360"><use xlink:href="#a"/><use xlink:href="#4"/><use xlink:href="#5" y="2.171"/><use xlink:href="#6" y="4.342"/><use xlink:href="#16" y="6.513"/></svg><svg x="5440"><use xlink:href="#a"/><use xlink:href="#4"/><use xlink:href="#5" y="2.171"/><use xlink:href="#6" y="4.342"/></svg><svg x="5520"><use xlink:href="#a"/><use xlink:href="#4"/><use xlink:href="#5" y="2.171"/><use xlink:href="#6" y="4.342"/><use xlink:href="#7" y="6.513"/></svg><svg x="5600"><use xlink:href="#a"/><use xlink:href="#4"/><use xlink:href="#5" y="2.171"/><use xlink:href="#6" y="4.342"/></svg><svg x="5680"><use xlink:href="#a"/><use xlink:href="#4"/><use xlink:href="#5" y="2.171"/><use xlink:href="#6" y="4.342"/><use xlink:href="#8" y="6.513"/></svg><svg x="5760"><use xlink:href="#a"/><use xlink:href="#4"/><use xlink:href="#5" y="2.171"/><use xlink:href="#6" y="4.342"/></svg><svg x="5840"><use xlink:href="#a"/><use xlink:href="#4"/><use xlink:href="#5" y="2.171"/><use xlink:href="#6" y="4.342"/><use xlink:href="#9" y="6.513"/></svg><svg x="5920"><use xlink:href="#a"/><use xlink:href="#4"/><use xlink:href="#5" y="2.171"/><use xlink:href="#6" y="4.342"/></svg><svg x="6000"><use xlink:href="#a"/><use xlink:href="#4"/><use xlink:href="#5" y="2.171"/><use xlink:href="#6" y="4.342"/><use xlink:href="#10" y="6.513"/></svg><svg x="6080"><use xlink:href="#a"/><use xlink:href="#4"/><use xlink:href="#5" y="2.171"/><use xlink:href="#6" y="4.342"/></svg><svg x="6160"><use xlink:href="#a"/><use xlink:href="#4"/><use xlink:href="#5" y="2.171"/><use xlink:href="#6" y="4.342"/><use xlink:href="#11" y="6.513"/></svg><svg x="6240"><use xlink:href="#a"/><use xlink:href="#4"/><use xlink:href="#5" y="2.171"/><use xlink:href="#6" y="4.342"/></svg><svg x="6320"><use xlink:href="#a"/><use xlink:href="#4"/><use xlink:href="#5" y="2.171"/><use xlink:href="#6" y="4.342"/></svg><svg x="6400"><use xlink:href="#a"/><use xlink:href="#4"/><use xlink:href="#5" y="2.171"/><use xlink:href="#6" y="4.342"/><use xlink:href="#12" y="6.513"/></svg><svg x="6480"><use xlink:href="#a"/><use xlink:href="#4"/><use xlink:href="#5" y="2.171"/><use xlink:href="#6" y="4.342"/></svg><svg x="6560"><use xlink:href="#a"/><use xlink:href="#4"/><use xlink:href="#5" y="2.171"/><use xlink:href="#6" y="4.342"/></svg><svg x="6640"><use xlink:href="#a"/><use xlink:href="#4"/><use xlink:href="#5" y="2.171"/><use xlink:href="#6" y="4.342"/><use xlink:href="#13" y="6.513"/></svg><svg x="6720"><use xlink:href="#a"/><use xlink:href="#4"/><use xlink:href="#5" y="2.171"/><use xlink:href="#6" y="4.342"/></svg><svg x="6800"><use xlink:href="#a"/><use xlink:href="#4"/><use xlink:href="#5" y="2.171"/><use xlink:href="#6" y="4.342"/><use xlink:href="#14" y="6.513"/></svg><svg x="6880"><use xlink:href="#a"/><use xlink:href="#4"/><use xlink:href="#5" y="2.171"/><use xlink:href="#6" y="4.342"/></svg><svg x="6960"><use xlink:href="#a"/><use xlink:href="#4"/><use xlink:href="#5" y="2.171"/><use xlink:href="#6" y="4.342"/><use xlink:href="#15" y="6.513"/></svg><svg x="7040"><use xlink:href="#a"/><use xlink:href="#4"/><use xlink:href="#5" y="2.171"/><use xlink:href="#6" y="4.342"/></svg><svg x="7120"><use xlink:href="#a"/><use xlink:href="#4"/><use xlink:href="#5" y="2.171"/><use xlink:href="#6" y="4.342"/><use xlink:href="#16" y="6.513"/></svg><svg x="7200"><use xlink:href="#a"/><use xlink:href="#4"/><use xlink:href="#5" y="2.171"/><use xlink:href="#6" y="4.342"/></svg><svg x="7280"><use xlink:href="#a"/><use xlink:href="#4"/><use xlink:href="#5" y="2.171"/><use xlink:href="#6" y="4.342"/><use xlink:href="#7" y="6.513"/></svg><svg x="7360"><use xlink:href="#a"/><use xlink:href="#4"/><use xlink:href="#5" y="2.171"/><use xlink:href="#6" y="4.342"/></svg><svg x="7440"><use xlink:href="#a"/><use xlink:href="#4"/><use xlink:href="#5" y="2.171"/><use xlink:href="#6" y="4.342"/><use xlink:href="#8" y="6.513"/></svg><svg x="7520"><use xlink:href="#a"/><use xlink:href="#4"/><use xlink:href="#5" y="2.171"/><use xlink:href="#6" y="4.342"/></svg><svg x="7600"><use xlink:href="#a"/><use xlink:href="#4"/><use xlink:href="#5" y="2.171"/><use xlink:href="#6" y="4.342"/><use xlink:href="#9" y="6.513"/></svg><svg x="7680"><use xlink:href="#a"/><use xlink:href="#4"/><use xlink:href="#5" y="2.171"/><use xlink:href="#6" y="4.342"/></svg><svg x="7760"><use xlink:href="#a"/><use xlink:href="#b" x="-.004" y="10.83"/><use xlink:href="#4"/><use xlink:href="#5" y="2.171"/><use xlink:href="#6" y="4.342"/><use xlink:href="#17" y="6.513"/><use xlink:href="#18" y="8.684"/></svg><svg x="7840"><use xlink:href="#a"/><use xlink:href="#b" x="-.004" y="10.83"/><use xlink:href="#4"/><use xlink:href="#5" y="2.171"/><use xlink:href="#6" y="4.342"/><use xlink:href="#17" y="6.513"/><use xlink:href="#18" y="8.684"/></svg><svg x="7920"><use xlink:href="#a"/><use xlink:href="#b" x="1.996" y="10.83"/><use xlink:href="#4"/><use xlink:href="#5" y="2.171"/><use xlink:href="#6" y="4.342"/><use xlink:href="#17" y="6.513"/><use xlink:href="#18" y="8.684"/><use xlink:href="#1" y="10.855"/></svg><svg x="8000"><use xlink:href="#a"/><use xlink:href="#b" x="2.996" y="10.83"/><use xlink:href="#4"/><use xlink:href="#5" y="2.171"/><use xlink:href="#6" y="4.342"/><use xlink:href="#17" y="6.513"/><use xlink:href="#18" y="8.684"/><text y="12.525" class="c">~</text><text x="2.004" y="12.525" class="d">c</text></svg><svg x="8080"><use xlink:href="#a"/><use xlink:href="#b" x="3.996" y="10.83"/><use xlink:href="#4"/><use xlink:href="#5" y="2.171"/><use xlink:href="#6" y="4.342"/><use xlink:href="#17" y="6.513"/><use xlink:href="#18" y="8.684"/><text y="12.525" class="c">~</text><text x="2.004" y="12.525" class="d">ca</text></svg><svg x="8160"><use xlink:href="#a"/><use xlink:href="#b" x="4.996" y="10.83"/><use xlink:href="#4"/><use xlink:href="#5" y="2.171"/><use xlink:href="#6" y="4.342"/><use xlink:href="#17" y="6.513"/><use xlink:href="#18" y="8.684"/><use xlink:href="#19" y="10.855"/></svg><svg x="8240"><use xlink:href="#a"/><use xlink:href="#b" x="5.996" y="10.83"/><use xlink:href="#4"/><use xlink:href="#5" y="2.171"/><use xlink:href="#6" y="4.342"/><use xlink:href="#17" y="6.513"/><use xlink:href="#18" y="8.684"/><use xlink:href="#19" y="10.855"/></svg><svg x="8320"><use xlink:href="#a"/><use xlink:href="#b" x="7.996" y="10.83"/><use xlink:href="#4"/><use xlink:href="#5" y="2.171"/><use xlink:href="#6" y="4.342"/><use xlink:href="#17" y="6.513"/><use xlink:href="#18" y="8.684"/><text y="12.525" class="c">~</text><text x="2.004" y="12.525" class="d">cat</text><text x="6.012" y="12.525" class="d">al</text></svg><svg x="8400"><use xlink:href="#a"/><use xlink:href="#b" x="8.996" y="10.83"/><use xlink:href="#4"/><use xlink:href="#5" y="2.171"/><use xlink:href="#6" y="4.342"/><use xlink:href="#17" y="6.513"/><use xlink:href="#18" y="8.684"/><text y="12.525" class="c">~</text><text x="2.004" y="12.525" class="d">cat</text><text x="6.012" y="12.525" class="d">alt</text></svg><svg x="8480"><use xlink:href="#a"/><use xlink:href="#b" x="9.996" y="10.83"/><use xlink:href="#4"/><use xlink:href="#5" y="2.171"/><use xlink:href="#6" y="4.342"/><use xlink:href="#17" y="6.513"/><use xlink:href="#18" y="8.684"/><text y="12.525" class="c">~</text><text x="2.004" y="12.525" class="d">cat</text><text x="6.012" y="12.525" class="d">altv</text></svg><svg x="8560"><use xlink:href="#a"/><use xlink:href="#b" x="10.996" y="10.83"/><use xlink:href="#4"/><use xlink:href="#5" y="2.171"/><use xlink:href="#6" y="4.342"/><use xlink:href="#17" y="6.513"/><use xlink:href="#18" y="8.684"/><text y="12.525" class="c">~</text><text x="2.004" y="12.525" class="d">cat</text><text x="6.012" y="12.525" class="d">altvr</text></svg><svg x="8640"><use xlink:href="#a"/><use xlink:href="#b" x="11.996" y="10.83"/><use xlink:href="#4"/><use xlink:href="#5" y="2.171"/><use xlink:href="#6" y="4.342"/><use xlink:href="#17" y="6.513"/><use xlink:href="#18" y="8.684"/><text y="12.525" class="c">~</text><text x="2.004" y="12.525" class="d">cat</text><text x="6.012" y="12.525" class="d">altvrd</text></svg><svg x="8720"><use xlink:href="#a"/><use xlink:href="#b" x="13.996" y="10.83"/><use xlink:href="#4"/><use xlink:href="#5" y="2.171"/><use xlink:href="#6" y="4.342"/><use xlink:href="#17" y="6.513"/><use xlink:href="#18" y="8.684"/><text y="12.525" class="c">~</text><text x="2.004" y="12.525" class="d">cat</text><text x="6.012" y="12.525" class="d">altvrd.j</text></svg><svg x="8800"><use xlink:href="#a"/><use xlink:href="#b" x="14.996" y="10.83"/><use xlink:href="#4"/><use xlink:href="#5" y="2.171"/><use xlink:href="#6" y="4.342"/><use xlink:href="#17" y="6.513"/><use xlink:href="#18" y="8.684"/><text y="12.525" class="c">~</text><text x="2.004" y="12.525" class="d">cat</text><text x="6.012" y="12.525" class="d">altvrd.js</text></svg><svg x="8880"><use xlink:href="#a"/><use xlink:href="#b" x="15.996" y="10.83"/><use xlink:href="#4"/><use xlink:href="#5" y="2.171"/><use xlink:href="#6" y="4.342"/><use xlink:href="#17" y="6.513"/><use xlink:href="#18" y="8.684"/><text y="12.525" class="c">~</text><text x="2.004" y="12.525" class="d">cat</text><text x="6.012" y="12.525" class="d">altvrd.jso</text></svg><svg x="8960"><use xlink:href="#a"/><use xlink:href="#b" x="16.996" y="10.83"/><use xlink:href="#4"/><use xlink:href="#5" y="2.171"/><use xlink:href="#6" y="4.342"/><use xlink:href="#17" y="6.513"/><use xlink:href="#18" y="8.684"/><use xlink:href="#20" y="10.855"/></svg><svg x="9040"><use xlink:href="#a"/><use xlink:href="#b" x="-.004" y="13.001"/><use xlink:href="#4"/><use xlink:href="#5" y="2.171"/><use xlink:href="#6" y="4.342"/><use xlink:href="#17" y="6.513"/><use xlink:href="#18" y="8.684"/><use xlink:href="#20" y="10.855"/></svg><svg x="9120"><use xlink:href="#a"/><use xlink:href="#b" x=".996" y="28.198"/><use xlink:href="#4"/><use xlink:href="#5" y="2.171"/><use xlink:href="#6" y="4.342"/><use xlink:href="#17" y="6.513"/><use xlink:href="#18" y="8.684"/><use xlink:href="#20" y="10.855"/><use xlink:href="#21" y="13.026"/><use xlink:href="#22" y="15.197"/><use xlink:href="#23" y="17.368"/><use xlink:href="#24" y="19.539"/><use xlink:href="#25" y="21.71"/><use xlink:href="#26" y="23.881"/><use xlink:href="#27" y="26.052"/><use xlink:href="#28" y="28.223"/></svg><svg x="9200"><use xlink:href="#a"/><use xlink:href="#b" x="-.004" y="30.369"/><use xlink:href="#4"/><use xlink:href="#5" y="2.171"/><use xlink:href="#6" y="4.342"/><use xlink:href="#17" y="6.513"/><use xlink:href="#18" y="8.684"/><use xlink:href="#20" y="10.855"/><use xlink:href="#21" y="13.026"/><use xlink:href="#22" y="15.197"/><use xlink:href="#23" y="17.368"/><use xlink:href="#24" y="19.539"/><use xlink:href="#25" y="21.71"/><use xlink:href="#26" y="23.881"/><use xlink:href="#27" y="26.052"/><use xlink:href="#28" y="28.223"/></svg><svg x="9280"><use xlink:href="#a"/><use xlink:href="#b" x="1.996" y="30.369"/><use xlink:href="#4"/><use xlink:href="#5" y="2.171"/><use xlink:href="#6" y="4.342"/><use xlink:href="#17" y="6.513"/><use xlink:href="#18" y="8.684"/><use xlink:href="#20" y="10.855"/><use xlink:href="#21" y="13.026"/><use xlink:href="#22" y="15.197"/><use xlink:href="#23" y="17.368"/><use xlink:href="#24" y="19.539"/><use xlink:href="#25" y="21.71"/><use xlink:href="#26" y="23.881"/><use xlink:href="#27" y="26.052"/><use xlink:href="#28" y="28.223"/><use xlink:href="#1" y="30.394"/></svg><svg x="9360"><use xlink:href="#a"/><use xlink:href="#b" x="2.996" y="30.369"/><use xlink:href="#4"/><use xlink:href="#5" y="2.171"/><use xlink:href="#6" y="4.342"/><use xlink:href="#17" y="6.513"/><use xlink:href="#18" y="8.684"/><use xlink:href="#20" y="10.855"/><use xlink:href="#21" y="13.026"/><use xlink:href="#22" y="15.197"/><use xlink:href="#23" y="17.368"/><use xlink:href="#24" y="19.539"/><use xlink:href="#25" y="21.71"/><use xlink:href="#26" y="23.881"/><use xlink:href="#27" y="26.052"/><use xlink:href="#28" y="28.223"/><text y="32.064" class="c">~</text><text x="2.004" y="32.064" class="d">l</text></svg><svg x="9440"><use xlink:href="#a"/><use xlink:href="#b" x="3.996" y="30.369"/><use xlink:href="#4"/><use xlink:href="#5" y="2.171"/><use xlink:href="#6" y="4.342"/><use xlink:href="#17" y="6.513"/><use xlink:href="#18" y="8.684"/><use xlink:href="#20" y="10.855"/><use xlink:href="#21" y="13.026"/><use xlink:href="#22" y="15.197"/><use xlink:href="#23" y="17.368"/><use xlink:href="#24" y="19.539"/><use xlink:href="#25" y="21.71"/><use xlink:href="#26" y="23.881"/><use xlink:href="#27" y="26.052"/><use xlink:href="#28" y="28.223"/><use xlink:href="#29" y="30.394"/></svg><svg x="9520"><use xlink:href="#a"/><use xlink:href="#b" x="4.996" y="30.369"/><use xlink:href="#4"/><use xlink:href="#5" y="2.171"/><use xlink:href="#6" y="4.342"/><use xlink:href="#17" y="6.513"/><use xlink:href="#18" y="8.684"/><use xlink:href="#20" y="10.855"/><use xlink:href="#21" y="13.026"/><use xlink:href="#22" y="15.197"/><use xlink:href="#23" y="17.368"/><use xlink:href="#24" y="19.539"/><use xlink:href="#25" y="21.71"/><use xlink:href="#26" y="23.881"/><use xlink:href="#27" y="26.052"/><use xlink:href="#28" y="28.223"/><use xlink:href="#29" y="30.394"/></svg><svg x="9600"><use xlink:href="#a"/><use xlink:href="#b" x="5.996" y="30.369"/><use xlink:href="#4"/><use xlink:href="#5" y="2.171"/><use xlink:href="#6" y="4.342"/><use xlink:href="#17" y="6.513"/><use xlink:href="#18" y="8.684"/><use xlink:href="#20" y="10.855"/><use xlink:href="#21" y="13.026"/><use xlink:href="#22" y="15.197"/><use xlink:href="#23" y="17.368"/><use xlink:href="#24" y="19.539"/><use xlink:href="#25" y="21.71"/><use xlink:href="#26" y="23.881"/><use xlink:href="#27" y="26.052"/><use xlink:href="#28" y="28.223"/><text y="32.064" class="c">~</text><text x="2.004" y="32.064" class="d">ls</text><text x="5.01" y="32.064" class="d">r</text></svg><svg x="9680"><use xlink:href="#a"/><use xlink:href="#b" x="6.996" y="30.369"/><use xlink:href="#4"/><use xlink:href="#5" y="2.171"/><use xlink:href="#6" y="4.342"/><use xlink:href="#17" y="6.513"/><use xlink:href="#18" y="8.684"/><use xlink:href="#20" y="10.855"/><use xlink:href="#21" y="13.026"/><use xlink:href="#22" y="15.197"/><use xlink:href="#23" y="17.368"/><use xlink:href="#24" y="19.539"/><use xlink:href="#25" y="21.71"/><use xlink:href="#26" y="23.881"/><use xlink:href="#27" y="26.052"/><use xlink:href="#28" y="28.223"/><text y="32.064" class="c">~</text><text x="2.004" y="32.064" class="d">ls</text><text x="5.01" y="32.064" class="d">re</text></svg><svg x="9760"><use xlink:href="#a"/><use xlink:href="#b" x="7.996" y="30.369"/><use xlink:href="#4"/><use xlink:href="#5" y="2.171"/><use xlink:href="#6" y="4.342"/><use xlink:href="#17" y="6.513"/><use xlink:href="#18" y="8.684"/><use xlink:href="#20" y="10.855"/><use xlink:href="#21" y="13.026"/><use xlink:href="#22" y="15.197"/><use xlink:href="#23" y="17.368"/><use xlink:href="#24" y="19.539"/><use xlink:href="#25" y="21.71"/><use xlink:href="#26" y="23.881"/><use xlink:href="#27" y="26.052"/><use xlink:href="#28" y="28.223"/><text y="32.064" class="c">~</text><text x="2.004" y="32.064" class="d">ls</text><text x="5.01" y="32.064" class="d">res</text></svg><svg x="9840"><use xlink:href="#a"/><use xlink:href="#b" x="8.996" y="30.369"/><use xlink:href="#4"/><use xlink:href="#5" y="2.171"/><use xlink:href="#6" y="4.342"/><use xlink:href="#17" y="6.513"/><use xlink:href="#18" y="8.684"/><use xlink:href="#20" y="10.855"/><use xlink:href="#21" y="13.026"/><use xlink:href="#22" y="15.197"/><use xlink:href="#23" y="17.368"/><use xlink:href="#24" y="19.539"/><use xlink:href="#25" y="21.71"/><use xlink:href="#26" y="23.881"/><use xlink:href="#27" y="26.052"/><use xlink:href="#28" y="28.223"/><text y="32.064" class="c">~</text><text x="2.004" y="32.064" class="d">ls</text><text x="5.01" y="32.064" class="d">reso</text></svg><svg x="9920"><use xlink:href="#a"/><use xlink:href="#b" x="9.996" y="30.369"/><use xlink:href="#4"/><use xlink:href="#5" y="2.171"/><use xlink:href="#6" y="4.342"/><use xlink:href="#17" y="6.513"/><use xlink:href="#18" y="8.684"/><use xlink:href="#20" y="10.855"/><use xlink:href="#21" y="13.026"/><use xlink:href="#22" y="15.197"/><use xlink:href="#23" y="17.368"/><use xlink:href="#24" y="19.539"/><use xlink:href="#25" y="21.71"/><use xlink:href="#26" y="23.881"/><use xlink:href="#27" y="26.052"/><use xlink:href="#28" y="28.223"/><text y="32.064" class="c">~</text><text x="2.004" y="32.064" class="d">ls</text><text x="5.01" y="32.064" class="d">resou</text></svg><svg x="10000"><use xlink:href="#a"/><use xlink:href="#b" x="10.996" y="30.369"/><use xlink:href="#4"/><use xlink:href="#5" y="2.171"/><use xlink:href="#6" y="4.342"/><use xlink:href="#17" y="6.513"/><use xlink:href="#18" y="8.684"/><use xlink:href="#20" y="10.855"/><use xlink:href="#21" y="13.026"/><use xlink:href="#22" y="15.197"/><use xlink:href="#23" y="17.368"/><use xlink:href="#24" y="19.539"/><use xlink:href="#25" y="21.71"/><use xlink:href="#26" y="23.881"/><use xlink:href="#27" y="26.052"/><use xlink:href="#28" y="28.223"/><text y="32.064" class="c">~</text><text x="2.004" y="32.064" class="d">ls</text><text x="5.01" y="32.064" class="d">resour</text></svg><svg x="10080"><use xlink:href="#a"/><use xlink:href="#b" x="12.996" y="30.369"/><use xlink:href="#4"/><use xlink:href="#5" y="2.171"/><use xlink:href="#6" y="4.342"/><use xlink:href="#17" y="6.513"/><use xlink:href="#18" y="8.684"/><use xlink:href="#20" y="10.855"/><use xlink:href="#21" y="13.026"/><use xlink:href="#22" y="15.197"/><use xlink:href="#23" y="17.368"/><use xlink:href="#24" y="19.539"/><use xlink:href="#25" y="21.71"/><use xlink:href="#26" y="23.881"/><use xlink:href="#27" y="26.052"/><use xlink:href="#28" y="28.223"/><text y="32.064" class="c">~</text><text x="2.004" y="32.064" class="d">ls</text><text x="5.01" y="32.064" class="d">resource</text></svg><svg x="10160"><use xlink:href="#a"/><use xlink:href="#b" x="13.996" y="30.369"/><use xlink:href="#4"/><use xlink:href="#5" y="2.171"/><use xlink:href="#6" y="4.342"/><use xlink:href="#17" y="6.513"/><use xlink:href="#18" y="8.684"/><use xlink:href="#20" y="10.855"/><use xlink:href="#21" y="13.026"/><use xlink:href="#22" y="15.197"/><use xlink:href="#23" y="17.368"/><use xlink:href="#24" y="19.539"/><use xlink:href="#25" y="21.71"/><use xlink:href="#26" y="23.881"/><use xlink:href="#27" y="26.052"/><use xlink:href="#28" y="28.223"/><text y="32.064" class="c">~</text><text x="2.004" y="32.064" class="d">ls</text><text x="5.01" y="32.064" class="d">resources</text></svg><svg x="10240"><use xlink:href="#a"/><use xlink:href="#b" x="14.996" y="30.369"/><use xlink:href="#4"/><use xlink:href="#5" y="2.171"/><use xlink:href="#6" y="4.342"/><use xlink:href="#17" y="6.513"/><use xlink:href="#18" y="8.684"/><use xlink:href="#20" y="10.855"/><use xlink:href="#21" y="13.026"/><use xlink:href="#22" y="15.197"/><use xlink:href="#23" y="17.368"/><use xlink:href="#24" y="19.539"/><use xlink:href="#25" y="21.71"/><use xlink:href="#26" y="23.881"/><use xlink:href="#27" y="26.052"/><use xlink:href="#28" y="28.223"/><use xlink:href="#30" y="30.394"/></svg><svg x="10320"><use xlink:href="#a"/><use xlink:href="#b" x="-.004" y="32.54"/><use xlink:href="#4"/><use xlink:href="#5" y="2.171"/><use xlink:href="#6" y="4.342"/><use xlink:href="#17" y="6.513"/><use xlink:href="#18" y="8.684"/><use xlink:href="#20" y="10.855"/><use xlink:href="#21" y="13.026"/><use xlink:href="#22" y="15.197"/><use xlink:href="#23" y="17.368"/><use xlink:href="#24" y="19.539"/><use xlink:href="#25" y="21.71"/><use xlink:href="#26" y="23.881"/><use xlink:href="#27" y="26.052"/><use xlink:href="#28" y="28.223"/><use xlink:href="#30" y="30.394"/></svg><svg x="10400"><use xlink:href="#a"/><use xlink:href="#b" x="-.004" y="34.711"/><use xlink:href="#4"/><use xlink:href="#5" y="2.171"/><use xlink:href="#6" y="4.342"/><use xlink:href="#17" y="6.513"/><use xlink:href="#18" y="8.684"/><use xlink:href="#20" y="10.855"/><use xlink:href="#21" y="13.026"/><use xlink:href="#22" y="15.197"/><use xlink:href="#23" y="17.368"/><use xlink:href="#24" y="19.539"/><use xlink:href="#25" y="21.71"/><use xlink:href="#26" y="23.881"/><use xlink:href="#27" y="26.052"/><use xlink:href="#28" y="28.223"/><use xlink:href="#30" y="30.394"/><use xlink:href="#31" y="32.565"/></svg><svg x="10480"><use xlink:href="#a"/><use xlink:href="#b" x="-.004" y="36.882"/><use xlink:href="#4"/><use xlink:href="#5" y="2.171"/><use xlink:href="#6" y="4.342"/><use xlink:href="#17" y="6.513"/><use xlink:href="#18" y="8.684"/><use xlink:href="#20" y="10.855"/><use xlink:href="#21" y="13.026"/><use xlink:href="#22" y="15.197"/><use xlink:href="#23" y="17.368"/><use xlink:href="#24" y="19.539"/><use xlink:href="#25" y="21.71"/><use xlink:href="#26" y="23.881"/><use xlink:href="#27" y="26.052"/><use xlink:href="#28" y="28.223"/><use xlink:href="#30" y="30.394"/><use xlink:href="#31" y="32.565"/></svg></svg></g></g></svg></svg>