<svg xmlns="http://www.w3.org/2000/svg" xmlns:xlink="http://www.w3.org/1999/xlink" width="850" height="482.49"><rect width="850" height="482.49" rx="5" ry="5" class="a"/><svg y="0%" x="0%"><circle cx="20" cy="20" r="6" fill="#ff5f58"/><circle cx="40" cy="20" r="6" fill="#ffbd2e"/><circle cx="60" cy="20" r="6" fill="#18c132"/></svg><svg height="412.49" viewBox="0 0 80 41.249" width="800" x="20" xmlns="http://www.w3.org/2000/svg" xmlns:xlink="http://www.w3.org/1999/xlink" y="55"><style>@keyframes m{0%{transform:translateX(0)}.12%{transform:translateX(-80px)}1.14%{transform:translateX(-160px)}1.64%{transform:translateX(-240px)}2.15%{transform:translateX(-320px)}2.67%{transform:translateX(-400px)}3.19%{transform:translateX(-480px)}3.7%{transform:translateX(-560px)}4.21%{transform:translateX(-640px)}4.72%{transform:translateX(-720px)}5.72%{transform:translateX(-800px)}6.21%{transform:translateX(-880px)}6.74%{transform:translateX(-960px)}7.77%{transform:translateX(-1040px)}8.27%{transform:translateX(-1120px)}8.77%{transform:translateX(-1200px)}9.28%{transform:translateX(-1280px)}9.79%{transform:translateX(-1360px)}10.3%{transform:translateX(-1440px)}11.33%{transform:translateX(-1520px)}11.83%{transform:translateX(-1600px)}12.33%{transform:translateX(-1680px)}12.85%{transform:translateX(-1760px)}13.35%{transform:translateX(-1840px)}13.86%{transform:translateX(-1920px)}14.86%{transform:translateX(-2000px)}15.41%{transform:translateX(-2080px)}15.89%{transform:translateX(-2160px)}16.89%{transform:translateX(-2240px)}17.41%{transform:translateX(-2320px)}17.91%{transform:translateX(-2400px)}18.43%{transform:translateX(-2480px)}18.92%{transform:translateX(-2560px)}19.44%{transform:translateX(-2640px)}21.19%{transform:translateX(-2800px)}21.66%{transform:translateX(-2960px)}22.11%{transform:translateX(-3200px)}22.56%{transform:translateX(-3360px)}23.02%{transform:translateX(-3520px)}23.47%{transform:translateX(-3600px)}23.48%{transform:translateX(-3680px)}23.49%{transform:translateX(-3760px)}23.5%{transform:translateX(-4320px)}29.22%{transform:translateX(-4400px)}29.23%{transform:translateX(-4480px)}29.68%{transform:translateX(-4560px)}30.12%{transform:translateX(-4720px)}30.58%{transform:translateX(-4880px)}31.03%{transform:translateX(-5040px)}31.48%{transform:translateX(-5200px)}31.95%{transform:translateX(-5360px)}32.4%{transform:translateX(-5520px)}32.85%{transform:translateX(-5680px)}33.3%{transform:translateX(-5840px)}33.76%{transform:translateX(-5920px)}34.23%{transform:translateX(-6160px)}34.67%{transform:translateX(-6320px)}35.14%{transform:translateX(-6560px)}35.6%{transform:translateX(-6720px)}36.07%{transform:translateX(-6880px)}36.51%{transform:translateX(-7120px)}36.97%{transform:translateX(-7280px)}37.43%{transform:translateX(-7360px)}37.89%{transform:translateX(-7520px)}38.34%{transform:translateX(-7680px)}38.78%{transform:translateX(-7840px)}39.24%{transform:translateX(-8000px)}39.68%{transform:translateX(-8080px)}39.69%{transform:translateX(-8240px)}40.13%{transform:translateX(-8400px)}40.35%{transform:translateX(-8560px)}40.56%{transform:translateX(-8640px)}40.65%{transform:translateX(-8720px)}51.66%{transform:translateX(-8800px)}52.68%{transform:translateX(-8880px)}53.18%{transform:translateX(-8960px)}53.7%{transform:translateX(-9040px)}54.21%{transform:translateX(-9120px)}54.73%{transform:translateX(-9200px)}55.23%{transform:translateX(-9280px)}55.74%{transform:translateX(-9360px)}56.25%{transform:translateX(-9440px)}56.74%{transform:translateX(-9520px)}57.25%{transform:translateX(-9600px)}57.75%{transform:translateX(-9680px)}58.27%{transform:translateX(-9760px)}59.29%{transform:translateX(-9840px)}59.8%{transform:translateX(-9920px)}60.32%{transform:translateX(-10000px)}60.36%{transform:translateX(-10160px)}71.42%{transform:translateX(-10240px)}72.42%{transform:translateX(-10320px)}72.92%{transform:translateX(-10400px)}73.43%{transform:translateX(-10480px)}73.93%{transform:translateX(-10560px)}74.44%{transform:translateX(-10640px)}74.96%{transform:translateX(-10720px)}75.47%{transform:translateX(-10800px)}75.97%{transform:translateX(-10880px)}76.47%{transform:translateX(-10960px)}76.99%{transform:translateX(-11040px)}77.49%{transform:translateX(-11120px)}78.01%{transform:translateX(-11200px)}78.03%{transform:translateX(-11280px)}to{transform:translateX(-11360px)}}.a{fill:#282d35}.f{fill:#a8cc8c}.g{fill:#b9c0cb}.h{fill:#71bef2}.i{fill:#66c2cd}.j{fill:#b9c0cb;font-weight:700}</style><g font-size="1.67" font-family="Monaco,Consolas,Menlo,'Bitstream Vera Sans Mono','Powerline Symbols',monospace"><defs><symbol id="17"><text y="1.67" class="g">✨</text><text x="2.004" y="1.67" class="j">altmp/ls-gangwar</text><text x="19.038" y="1.67" class="g">was</text><text x="23.046" y="1.67" class="g">successfully</text><text x="36.072" y="1.67" class="g">installed</text><text x="46.092" y="1.67" class="g">to</text><text x="49.098" y="1.67" class="g">the</text><text x="53.106" y="1.67" class="g">latest</text><text x="60.12" y="1.67" class="g">version.</text></symbol><symbol id="1"><text y="1.67" class="f">~</text></symbol><symbol id="3"><text y="1.67" class="f">~</text><text x="2.004" y="1.67" class="g">altvrd</text><text x="9.018" y="1.67" class="g">install</text></symbol><symbol id="4"><text y="1.67" class="f">~</text><text x="2.004" y="1.67" class="g">altvrd</text><text x="9.018" y="1.67" class="g">install</text><text x="17.034" y="1.67" class="g">altmp/ls-gangwar</text></symbol><symbol id="5"><text y="1.67" class="h">ℹ</text><text x="2.004" y="1.67" class="g">Fetching</text><text x="11.022" y="1.67" class="g">altmp/ls-gangwar</text><text x="28.056" y="1.67" class="g">from</text><text x="33.066" y="1.67" class="g">GitHub.</text></symbol><symbol id="6"><text y="1.67" class="h">ℹ</text><text x="2.004" y="1.67" class="g">This</text><text x="7.014" y="1.67" class="g">resource</text><text x="16.032" y="1.67" class="g">doesn&apos;t</text><text x="24.048" y="1.67" class="g">use</text><text x="28.056" y="1.67" class="g">releases.</text><text x="38.076" y="1.67" class="g">Downloading</text><text x="50.1" y="1.67" class="g">from</text><text x="55.11" y="1.67" class="g">master.</text></symbol><symbol id="7"><text y="1.67" class="i">⠋</text><text x="2.004" y="1.67" class="g">Downloaded</text><text x="13.026" y="1.67" class="g">the</text><text x="17.034" y="1.67" class="g">resource.</text><text x="27.054" y="1.67" class="g">Installing</text><text x="38.076" y="1.67" class="g">it.</text></symbol><symbol id="8"><text y="1.67" class="i">⠙</text><text x="2.004" y="1.67" class="g">Downloaded</text><text x="13.026" y="1.67" class="g">the</text><text x="17.034" y="1.67" class="g">resource.</text><text x="27.054" y="1.67" class="g">Installing</text><text x="38.076" y="1.67" class="g">it.</text></symbol><symbol id="9"><text y="1.67" class="i">⠹</text><text x="2.004" y="1.67" class="g">Downloaded</text><text x="13.026" y="1.67" class="g">the</text><text x="17.034" y="1.67" class="g">resource.</text><text x="27.054" y="1.67" class="g">Installing</text><text x="38.076" y="1.67" class="g">it.</text></symbol><symbol id="10"><text y="1.67" class="i">⠸</text><text x="2.004" y="1.67" class="g">Downloaded</text><text x="13.026" y="1.67" class="g">the</text><text x="17.034" y="1.67" class="g">resource.</text><text x="27.054" y="1.67" class="g">Installing</text><text x="38.076" y="1.67" class="g">it.</text></symbol><symbol id="11"><text y="1.67" class="i">⠼</text><text x="2.004" y="1.67" class="g">Downloaded</text><text x="13.026" y="1.67" class="g">the</text><text x="17.034" y="1.67" class="g">resource.</text><text x="27.054" y="1.67" class="g">Installing</text><text x="38.076" y="1.67" class="g">it.</text></symbol><symbol id="12"><text y="1.67" class="i">⠴</text><text x="2.004" y="1.67" class="g">Downloaded</text><text x="13.026" y="1.67" class="g">the</text><text x="17.034" y="1.67" class="g">resource.</text><text x="27.054" y="1.67" class="g">Installing</text><text x="38.076" y="1.67" class="g">it.</text></symbol><symbol id="13"><text y="1.67" class="i">⠦</text><text x="2.004" y="1.67" class="g">Downloaded</text><text x="13.026" y="1.67" class="g">the</text><text x="17.034" y="1.67" class="g">resource.</text><text x="27.054" y="1.67" class="g">Installing</text><text x="38.076" y="1.67" class="g">it.</text></symbol><symbol id="14"><text y="1.67" class="i">⠧</text><text x="2.004" y="1.67" class="g">Downloaded</text><text x="13.026" y="1.67" class="g">the</text><text x="17.034" y="1.67" class="g">resource.</text><text x="27.054" y="1.67" class="g">Installing</text><text x="38.076" y="1.67" class="g">it.</text></symbol><symbol id="15"><text y="1.67" class="i">⠇</text><text x="2.004" y="1.67" class="g">Downloaded</text><text x="13.026" y="1.67" class="g">the</text><text x="17.034" y="1.67" class="g">resource.</text><text x="27.054" y="1.67" class="g">Installing</text><text x="38.076" y="1.67" class="g">it.</text></symbol><symbol id="16"><text y="1.67" class="i">⠏</text><text x="2.004" y="1.67" class="g">Downloaded</text><text x="13.026" y="1.67" class="g">the</text><text x="17.034" y="1.67" class="g">resource.</text><text x="27.054" y="1.67" class="g">Installing</text><text x="38.076" y="1.67" class="g">it.</text></symbol><symbol id="2"><text y="1.67" class="f">~</text><text x="2.004" y="1.67" class="g">altvrd</text></symbol><symbol id="18"><text y="1.67" class="h">ℹ</text><text x="2.004" y="1.67" class="g">Add</text><text x="6.012" y="1.67" class="g">&quot;altmp@ls-gangwar&quot;</text><text x="25.05" y="1.67" class="g">to</text><text x="28.056" y="1.67" class="g">your</text><text x="33.066" y="1.67" class="g">.cfg</text><text x="38.076" y="1.67" class="g">file</text><text x="43.086" y="1.67" class="g">(under</text><text x="50.1" y="1.67" class="j">resources</text><text x="59.118" y="1.67" class="g">)</text><text x="61.122" y="1.67" class="g">section</text><text x="69.138" y="1.67" class="g">to</text><text x="72.144" y="1.67" class="g">use</text><text x="76.152" y="1.67" class="g">it.</text></symbol><symbol id="19"><text y="1.67" class="f">~</text><text x="2.004" y="1.67" class="g">cat</text></symbol><symbol id="20"><text y="1.67" class="f">~</text><text x="2.004" y="1.67" class="g">cat</text><text x="6.012" y="1.67" class="g">altvrd.json</text></symbol><symbol id="21"><text y="1.67" class="g">{</text></symbol><symbol id="22"><text x="2.004" y="1.67" class="g">&quot;resources&quot;:</text><text x="15.03" y="1.67" class="g">{</text></symbol><symbol id="23"><text x="4.008" y="1.67" class="g">&quot;altmp/ls-gangwar&quot;:</text><text x="24.048" y="1.67" class="g">{</text></symbol><symbol id="24"><text x="6.012" y="1.67" class="g">&quot;url&quot;:</text><text x="13.026" y="1.67" class="g">&quot;https://github.com/altmp/ls-gangwar/archive/master.zip&quot;,</text></symbol><symbol id="25"><text x="6.012" y="1.67" class="g">&quot;folder&quot;:</text><text x="16.032" y="1.67" class="g">&quot;altmp@ls-gangwar&quot;</text></symbol><symbol id="26"><text x="4.008" y="1.67" class="g">}</text></symbol><symbol id="27"><text x="2.004" y="1.67" class="g">}</text></symbol><symbol id="28"><text y="1.67" class="g">}</text></symbol><symbol id="29"><text y="1.67" class="f">~</text><text x="2.004" y="1.67" class="g">ls</text></symbol><symbol id="30"><text y="1.67" class="f">~</text><text x="2.004" y="1.67" class="g">ls</text><text x="5.01" y="1.67" class="g">resources/</text></symbol><symbol id="31"><text y="1.67" class="g">altmp@ls-gangwar</text></symbol><symbol id="a"><path fill="transparent" d="M0 0h80v20H0z"/></symbol><symbol id="b"><path fill="#6f7683" d="M0 0h1.102v2.171H0z"/></symbol></defs><path class="a" d="M0 0h80v41.249H0z"/><g style="animation-duration:18.239832s;animation-iteration-count:infinite;animation-name:m;animation-timing-function:steps(1,end)"><svg width="11440"><svg><use xlink:href="#a"/><use xlink:href="#b" x="-.004"/></svg><svg x="80"><use xlink:href="#a"/><use xlink:href="#b" x="1.996"/><use xlink:href="#1"/></svg><svg x="160"><use xlink:href="#a"/><use xlink:href="#b" x="2.996"/><text y="1.67" class="f">~</text><text x="2.004" y="1.67" class="g">a</text></svg><svg x="240"><use xlink:href="#a"/><use xlink:href="#b" x="3.996"/><text y="1.67" class="f">~</text><text x="2.004" y="1.67" class="g">al</text></svg><svg x="320"><use xlink:href="#a"/><use xlink:href="#b" x="4.996"/><text y="1.67" class="f">~</text><text x="2.004" y="1.67" class="g">alt</text></svg><svg x="400"><use xlink:href="#a"/><use xlink:href="#b" x="5.996"/><text y="1.67" class="f">~</text><text x="2.004" y="1.67" class="g">altv</text></svg><svg x="480"><use xlink:href="#a"/><use xlink:href="#b" x="6.996"/><text y="1.67" class="f">~</text><text x="2.004" y="1.67" class="g">altvr</text></svg><svg x="560"><use xlink:href="#a"/><use xlink:href="#b" x="7.996"/><use xlink:href="#2"/></svg><svg x="640"><use xlink:href="#a"/><use xlink:href="#b" x="8.996"/><use xlink:href="#2"/></svg><svg x="720"><use xlink:href="#a"/><use xlink:href="#b" x="9.996"/><text y="1.67" class="f">~</text><text x="2.004" y="1.67" class="g">altvrd</text><text x="9.018" y="1.67" class="g">i</text></svg><svg x="800"><use xlink:href="#a"/><use xlink:href="#b" x="10.996"/><text y="1.67" class="f">~</text><text x="2.004" y="1.67" class="g">altvrd</text><text x="9.018" y="1.67" class="g">in</text></svg><svg x="880"><use xlink:href="#a"/><use xlink:href="#b" x="11.996"/><text y="1.67" class="f">~</text><text x="2.004" y="1.67" class="g">altvrd</text><text x="9.018" y="1.67" class="g">ins</text></svg><svg x="960"><use xlink:href="#a"/><use xlink:href="#b" x="12.996"/><text y="1.67" class="f">~</text><text x="2.004" y="1.67" class="g">altvrd</text><text x="9.018" y="1.67" class="g">inst</text></svg><svg x="1040"><use xlink:href="#a"/><use xlink:href="#b" x="13.996"/><text y="1.67" class="f">~</text><text x="2.004" y="1.67" class="g">altvrd</text><text x="9.018" y="1.67" class="g">insta</text></svg><svg x="1120"><use xlink:href="#a"/><use xlink:href="#b" x="14.996"/><text y="1.67" class="f">~</text><text x="2.004" y="1.67" class="g">altvrd</text><text x="9.018" y="1.67" class="g">instal</text></svg><svg x="1200"><use xlink:href="#a"/><use xlink:href="#b" x="15.996"/><use xlink:href="#3"/></svg><svg x="1280"><use xlink:href="#a"/><use xlink:href="#b" x="16.996"/><use xlink:href="#3"/></svg><svg x="1360"><use xlink:href="#a"/><use xlink:href="#b" x="17.996"/><text y="1.67" class="f">~</text><text x="2.004" y="1.67" class="g">altvrd</text><text x="9.018" y="1.67" class="g">install</text><text x="17.034" y="1.67" class="g">a</text></svg><svg x="1440"><use xlink:href="#a"/><use xlink:href="#b" x="18.996"/><text y="1.67" class="f">~</text><text x="2.004" y="1.67" class="g">altvrd</text><text x="9.018" y="1.67" class="g">install</text><text x="17.034" y="1.67" class="g">al</text></svg><svg x="1520"><use xlink:href="#a"/><use xlink:href="#b" x="19.996"/><text y="1.67" class="f">~</text><text x="2.004" y="1.67" class="g">altvrd</text><text x="9.018" y="1.67" class="g">install</text><text x="17.034" y="1.67" class="g">alt</text></svg><svg x="1600"><use xlink:href="#a"/><use xlink:href="#b" x="20.996"/><text y="1.67" class="f">~</text><text x="2.004" y="1.67" class="g">altvrd</text><text x="9.018" y="1.67" class="g">install</text><text x="17.034" y="1.67" class="g">altm</text></svg><svg x="1680"><use xlink:href="#a"/><use xlink:href="#b" x="21.996"/><text y="1.67" class="f">~</text><text x="2.004" y="1.67" class="g">altvrd</text><text x="9.018" y="1.67" class="g">install</text><text x="17.034" y="1.67" class="g">altmp</text></svg><svg x="1760"><use xlink:href="#a"/><use xlink:href="#b" x="22.996"/><text y="1.67" class="f">~</text><text x="2.004" y="1.67" class="g">altvrd</text><text x="9.018" y="1.67" class="g">install</text><text x="17.034" y="1.67" class="g">altmp/</text></svg><svg x="1840"><use xlink:href="#a"/><use xlink:href="#b" x="23.996"/><text y="1.67" class="f">~</text><text x="2.004" y="1.67" class="g">altvrd</text><text x="9.018" y="1.67" class="g">install</text><text x="17.034" y="1.67" class="g">altmp/l</text></svg><svg x="1920"><use xlink:href="#a"/><use xlink:href="#b" x="24.996"/><text y="1.67" class="f">~</text><text x="2.004" y="1.67" class="g">altvrd</text><text x="9.018" y="1.67" class="g">install</text><text x="17.034" y="1.67" class="g">altmp/ls</text></svg><svg x="2000"><use xlink:href="#a"/><use xlink:href="#b" x="25.996"/><text y="1.67" class="f">~</text><text x="2.004" y="1.67" class="g">altvrd</text><text x="9.018" y="1.67" class="g">install</text><text x="17.034" y="1.67" class="g">altmp/ls-</text></svg><svg x="2080"><use xlink:href="#a"/><use xlink:href="#b" x="26.996"/><text y="1.67" class="f">~</text><text x="2.004" y="1.67" class="g">altvrd</text><text x="9.018" y="1.67" class="g">install</text><text x="17.034" y="1.67" class="g">altmp/ls-g</text></svg><svg x="2160"><use xlink:href="#a"/><use xlink:href="#b" x="27.996"/><text y="1.67" class="f">~</text><text x="2.004" y="1.67" class="g">altvrd</text><text x="9.018" y="1.67" class="g">install</text><text x="17.034" y="1.67" class="g">altmp/ls-ga</text></svg><svg x="2240"><use xlink:href="#a"/><use xlink:href="#b" x="28.996"/><text y="1.67" class="f">~</text><text x="2.004" y="1.67" class="g">altvrd</text><text x="9.018" y="1.67" class="g">install</text><text x="17.034" y="1.67" class="g">altmp/ls-gan</text></svg><svg x="2320"><use xlink:href="#a"/><use xlink:href="#b" x="29.996"/><text y="1.67" class="f">~</text><text x="2.004" y="1.67" class="g">altvrd</text><text x="9.018" y="1.67" class="g">install</text><text x="17.034" y="1.67" class="g">altmp/ls-gang</text></svg><svg x="2400"><use xlink:href="#a"/><use xlink:href="#b" x="30.996"/><text y="1.67" class="f">~</text><text x="2.004" y="1.67" class="g">altvrd</text><text x="9.018" y="1.67" class="g">install</text><text x="17.034" y="1.67" class="g">altmp/ls-gangw</text></svg><svg x="2480"><use xlink:href="#a"/><use xlink:href="#b" x="31.996"/><text y="1.67" class="f">~</text><text x="2.004" y="1.67" class="g">altvrd</text><text x="9.018" y="1.67" class="g">install</text><text x="17.034" y="1.67" class="g">altmp/ls-gangwa</text></svg><svg x="2560"><use xlink:href="#a"/><use xlink:href="#b" x="32.996"/><use xlink:href="#4"/></svg><svg x="2640"><use xlink:href="#a"/><use xlink:href="#b" x="-.004" y="2.146"/><use xlink:href="#4"/></svg><svg x="2720"><use xlink:href="#a"/><use xlink:href="#4"/></svg><svg x="2800"><use xlink:href="#a"/><use xlink:href="#4"/><text y="3.841" class="i">⠋</text><text x="2.004" y="3.841" class="g">Checking</text><text x="11.022" y="3.841" class="g">version</text><text x="19.038" y="3.841" class="g">of</text><text x="22.044" y="3.841" class="j">altvrd</text><text x="28.056" y="3.841" class="g">,</text><text x="30.06" y="3.841" class="g">this</text><text x="35.07" y="3.841" class="g">won&apos;t</text><text x="41.082" y="3.841" class="g">take</text><text x="46.092" y="3.841" class="g">long.</text></svg><svg x="2880"><use xlink:href="#a"/><use xlink:href="#4"/></svg><svg x="2960"><use xlink:href="#a"/><use xlink:href="#4"/><text y="3.841" class="i">⠙</text><text x="2.004" y="3.841" class="g">Checking</text><text x="11.022" y="3.841" class="g">version</text><text x="19.038" y="3.841" class="g">of</text><text x="22.044" y="3.841" class="j">altvrd</text><text x="28.056" y="3.841" class="g">,</text><text x="30.06" y="3.841" class="g">this</text><text x="35.07" y="3.841" class="g">won&apos;t</text><text x="41.082" y="3.841" class="g">take</text><text x="46.092" y="3.841" class="g">long.</text></svg><svg x="3040"><use xlink:href="#a"/><use xlink:href="#4"/></svg><svg x="3120"><use xlink:href="#a"/><use xlink:href="#4"/></svg><svg x="3200"><use xlink:href="#a"/><use xlink:href="#4"/><text y="3.841" class="i">⠹</text><text x="2.004" y="3.841" class="g">Checking</text><text x="11.022" y="3.841" class="g">version</text><text x="19.038" y="3.841" class="g">of</text><text x="22.044" y="3.841" class="j">altvrd</text><text x="28.056" y="3.841" class="g">,</text><text x="30.06" y="3.841" class="g">this</text><text x="35.07" y="3.841" class="g">won&apos;t</text><text x="41.082" y="3.841" class="g">take</text><text x="46.092" y="3.841" class="g">long.</text></svg><svg x="3280"><use xlink:href="#a"/><use xlink:href="#4"/></svg><svg x="3360"><use xlink:href="#a"/><use xlink:href="#4"/><text y="3.841" class="i">⠸</text><text x="2.004" y="3.841" class="g">Checking</text><text x="11.022" y="3.841" class="g">version</text><text x="19.038" y="3.841" class="g">of</text><text x="22.044" y="3.841" class="j">altvrd</text><text x="28.056" y="3.841" class="g">,</text><text x="30.06" y="3.841" class="g">this</text><text x="35.07" y="3.841" class="g">won&apos;t</text><text x="41.082" y="3.841" class="g">take</text><text x="46.092" y="3.841" class="g">long.</text></svg><svg x="3440"><use xlink:href="#a"/><use xlink:href="#4"/></svg><svg x="3520"><use xlink:href="#a"/><use xlink:href="#4"/><text y="3.841" class="i">⠼</text><text x="2.004" y="3.841" class="g">Checking</text><text x="11.022" y="3.841" class="g">version</text><text x="19.038" y="3.841" class="g">of</text><text x="22.044" y="3.841" class="j">altvrd</text><text x="28.056" y="3.841" class="g">,</text><text x="30.06" y="3.841" class="g">this</text><text x="35.07" y="3.841" class="g">won&apos;t</text><text x="41.082" y="3.841" class="g">take</text><text x="46.092" y="3.841" class="g">long.</text></svg><svg x="3600"><use xlink:href="#a"/><use xlink:href="#4"/></svg><svg x="3680"><use xlink:href="#a"/><use xlink:href="#4"/><text y="3.841" class="i">⠴</text><text x="2.004" y="3.841" class="g">Checking</text><text x="11.022" y="3.841" class="g">version</text><text x="19.038" y="3.841" class="g">of</text><text x="22.044" y="3.841" class="j">altvrd</text><text x="28.056" y="3.841" class="g">,</text><text x="30.06" y="3.841" class="g">this</text><text x="35.07" y="3.841" class="g">won&apos;t</text><text x="41.082" y="3.841" class="g">take</text><text x="46.092" y="3.841" class="g">long.</text></svg><svg x="3760"><use xlink:href="#a"/><use xlink:href="#4"/></svg><svg x="3840"><use xlink:href="#a"/><use xlink:href="#b" x="-.004" y="2.146"/><use xlink:href="#4"/></svg><svg x="3920"><use xlink:href="#a"/><use xlink:href="#4"/></svg><svg x="4000"><use xlink:href="#a"/><use xlink:href="#4"/><text y="3.841" class="i">⠋</text><text x="2.004" y="3.841" class="g">Reading</text><text x="10.02" y="3.841" class="g">altvrd.json...</text></svg><svg x="4080"><use xlink:href="#a"/><use xlink:href="#4"/></svg><svg x="4160"><use xlink:href="#a"/><use xlink:href="#b" x="-.004" y="2.146"/><use xlink:href="#4"/></svg><svg x="4240"><use xlink:href="#a"/><use xlink:href="#b" x="-.004" y="2.146"/><use xlink:href="#4"/></svg><svg x="4320"><use xlink:href="#a"/><use xlink:href="#b" x="-.004" y="4.317"/><use xlink:href="#4"/><use xlink:href="#5" y="2.171"/></svg><svg x="4400"><use xlink:href="#a"/><use xlink:href="#b" x="-.004" y="6.488"/><use xlink:href="#4"/><use xlink:href="#5" y="2.171"/><use xlink:href="#6" y="4.342"/></svg><svg x="4480"><use xlink:href="#a"/><use xlink:href="#4"/><use xlink:href="#5" y="2.171"/><use xlink:href="#6" y="4.342"/><use xlink:href="#7" y="6.513"/></svg><svg x="4560"><use xlink:href="#a"/><use xlink:href="#4"/><use xlink:href="#5" y="2.171"/><use xlink:href="#6" y="4.342"/><use xlink:href="#8" y="6.513"/></svg><svg x="4640"><use xlink:href="#a"/><use xlink:href="#4"/><use xlink:href="#5" y="2.171"/><use xlink:href="#6" y="4.342"/></svg><svg x="4720"><use xlink:href="#a"/><use xlink:href="#4"/><use xlink:href="#5" y="2.171"/><use xlink:href="#6" y="4.342"/><use xlink:href="#9" y="6.513"/></svg><svg x="4800"><use xlink:href="#a"/><use xlink:href="#4"/><use xlink:href="#5" y="2.171"/><use xlink:href="#6" y="4.342"/></svg><svg x="4880"><use xlink:href="#a"/><use xlink:href="#4"/><use xlink:href="#5" y="2.171"/><use xlink:href="#6" y="4.342"/><use xlink:href="#10" y="6.513"/></svg><svg x="4960"><use xlink:href="#a"/><use xlink:href="#4"/><use xlink:href="#5" y="2.171"/><use xlink:href="#6" y="4.342"/></svg><svg x="5040"><use xlink:href="#a"/><use xlink:href="#4"/><use xlink:href="#5" y="2.171"/><use xlink:href="#6" y="4.342"/><use xlink:href="#11" y="6.513"/></svg><svg x="5120"><use xlink:href="#a"/><use xlink:href="#4"/><use xlink:href="#5" y="2.171"/><use xlink:href="#6" y="4.342"/></svg><svg x="5200"><use xlink:href="#a"/><use xlink:href="#4"/><use xlink:href="#5" y="2.171"/><use xlink:href="#6" y="4.342"/><use xlink:href="#12" y="6.513"/></svg><svg x="5280"><use xlink:href="#a"/><use xlink:href="#4"/><use xlink:href="#5" y="2.171"/><use xlink:href="#6" y="4.342"/></svg><svg x="5360"><use xlink:href="#a"/><use xlink:href="#4"/><use xlink:href="#5" y="2.171"/><use xlink:href="#6" y="4.342"/><use xlink:href="#13" y="6.513"/></svg><svg x="5440"><use xlink:href="#a"/><use xlink:href="#4"/><use xlink:href="#5" y="2.171"/><use xlink:href="#6" y="4.342"/></svg><svg x="5520"><use xlink:href="#a"/><use xlink:href="#4"/><use xlink:href="#5" y="2.171"/><use xlink:href="#6" y="4.342"/><use xlink:href="#14" y="6.513"/></svg><svg x="5600"><use xlink:href="#a"/><use xlink:href="#4"/><use xlink:href="#5" y="2.171"/><use xlink:href="#6" y="4.342"/></svg><svg x="5680"><use xlink:href="#a"/><use xlink:href="#4"/><use xlink:href="#5" y="2.171"/><use xlink:href="#6" y="4.342"/><use xlink:href="#15" y="6.513"/></svg><svg x="5760"><use xlink:href="#a"/><use xlink:href="#4"/><use xlink:href="#5" y="2.171"/><use xlink:href="#6" y="4.342"/></svg><svg x="5840"><use xlink:href="#a"/><use xlink:href="#4"/><use xlink:href="#5" y="2.171"/><use xlink:href="#6" y="4.342"/><use xlink:href="#16" y="6.513"/></svg><svg x="5920"><use xlink:href="#a"/><use xlink:href="#4"/><use xlink:href="#5" y="2.171"/><use xlink:href="#6" y="4.342"/><use xlink:href="#7" y="6.513"/></svg><svg x="6000"><use xlink:href="#a"/><use xlink:href="#4"/><use xlink:href="#5" y="2.171"/><use xlink:href="#6" y="4.342"/></svg><svg x="6080"><use xlink:href="#a"/><use xlink:href="#4"/><use xlink:href="#5" y="2.171"/><use xlink:href="#6" y="4.342"/></svg><svg x="6160"><use xlink:href="#a"/><use xlink:href="#4"/><use xlink:href="#5" y="2.171"/><use xlink:href="#6" y="4.342"/><use xlink:href="#8" y="6.513"/></svg><svg x="6240"><use xlink:href="#a"/><use xlink:href="#4"/><use xlink:href="#5" y="2.171"/><use xlink:href="#6" y="4.342"/></svg><svg x="6320"><use xlink:href="#a"/><use xlink:href="#4"/><use xlink:href="#5" y="2.171"/><use xlink:href="#6" y="4.342"/><use xlink:href="#9" y="6.513"/></svg><svg x="6400"><use xlink:href="#a"/><use xlink:href="#4"/><use xlink:href="#5" y="2.171"/><use xlink:href="#6" y="4.342"/></svg><svg x="6480"><use xlink:href="#a"/><use xlink:href="#4"/><use xlink:href="#5" y="2.171"/><use xlink:href="#6" y="4.342"/></svg><svg x="6560"><use xlink:href="#a"/><use xlink:href="#4"/><use xlink:href="#5" y="2.171"/><use xlink:href="#6" y="4.342"/><use xlink:href="#10" y="6.513"/></svg><svg x="6640"><use xlink:href="#a"/><use xlink:href="#4"/><use xlink:href="#5" y="2.171"/><use xlink:href="#6" y="4.342"/></svg><svg x="6720"><use xlink:href="#a"/><use xlink:href="#4"/><use xlink:href="#5" y="2.171"/><use xlink:href="#6" y="4.342"/><use xlink:href="#11" y="6.513"/></svg><svg x="6800"><use xlink:href="#a"/><use xlink:href="#4"/><use xlink:href="#5" y="2.171"/><use xlink:href="#6" y="4.342"/></svg><svg x="6880"><use xlink:href="#a"/><use xlink:href="#4"/><use xlink:href="#5" y="2.171"/><use xlink:href="#6" y="4.342"/><use xlink:href="#12" y="6.513"/></svg><svg x="6960"><use xlink:href="#a"/><use xlink:href="#4"/><use xlink:href="#5" y="2.171"/><use xlink:href="#6" y="4.342"/></svg><svg x="7040"><use xlink:href="#a"/><use xlink:href="#4"/><use xlink:href="#5" y="2.171"/><use xlink:href="#6" y="4.342"/></svg><svg x="7120"><use xlink:href="#a"/><use xlink:href="#4"/><use xlink:href="#5" y="2.171"/><use xlink:href="#6" y="4.342"/><use xlink:href="#13" y="6.513"/></svg><svg x="7200"><use xlink:href="#a"/><use xlink:href="#4"/><use xlink:href="#5" y="2.171"/><use xlink:href="#6" y="4.342"/></svg><svg x="7280"><use xlink:href="#a"/><use xlink:href="#4"/><use xlink:href="#5" y="2.171"/><use xlink:href="#6" y="4.342"/><use xlink:href="#14" y="6.513"/></svg><svg x="7360"><use xlink:href="#a"/><use xlink:href="#4"/><use xlink:href="#5" y="2.171"/><use xlink:href="#6" y="4.342"/><use xlink:href="#15" y="6.513"/></svg><svg x="7440"><use xlink:href="#a"/><use xlink:href="#4"/><use xlink:href="#5" y="2.171"/><use xlink:href="#6" y="4.342"/></svg><svg x="7520"><use xlink:href="#a"/><use xlink:href="#4"/><use xlink:href="#5" y="2.171"/><use xlink:href="#6" y="4.342"/><use xlink:href="#16" y="6.513"/></svg><svg x="7600"><use xlink:href="#a"/><use xlink:href="#4"/><use xlink:href="#5" y="2.171"/><use xlink:href="#6" y="4.342"/></svg><svg x="7680"><use xlink:href="#a"/><use xlink:href="#4"/><use xlink:href="#5" y="2.171"/><use xlink:href="#6" y="4.342"/><use xlink:href="#7" y="6.513"/></svg><svg x="7760"><use xlink:href="#a"/><use xlink:href="#4"/><use xlink:href="#5" y="2.171"/><use xlink:href="#6" y="4.342"/></svg><svg x="7840"><use xlink:href="#a"/><use xlink:href="#4"/><use xlink:href="#5" y="2.171"/><use xlink:href="#6" y="4.342"/><use xlink:href="#8" y="6.513"/></svg><svg x="7920"><use xlink:href="#a"/><use xlink:href="#4"/><use xlink:href="#5" y="2.171"/><use xlink:href="#6" y="4.342"/></svg><svg x="8000"><use xlink:href="#a"/><use xlink:href="#4"/><use xlink:href="#5" y="2.171"/><use xlink:href="#6" y="4.342"/><use xlink:href="#9" y="6.513"/></svg><svg x="8080"><use xlink:href="#a"/><use xlink:href="#4"/><use xlink:href="#5" y="2.171"/><use xlink:href="#6" y="4.342"/></svg><svg x="8160"><use xlink:href="#a"/><use xlink:href="#4"/><use xlink:href="#5" y="2.171"/><use xlink:href="#6" y="4.342"/></svg><svg x="8240"><use xlink:href="#a"/><use xlink:href="#4"/><use xlink:href="#5" y="2.171"/><use xlink:href="#6" y="4.342"/><use xlink:href="#10" y="6.513"/></svg><svg x="8320"><use xlink:href="#a"/><use xlink:href="#4"/><use xlink:href="#5" y="2.171"/><use xlink:href="#6" y="4.342"/></svg><svg x="8400"><use xlink:href="#a"/><use xlink:href="#4"/><use xlink:href="#5" y="2.171"/><use xlink:href="#6" y="4.342"/><use xlink:href="#11" y="6.513"/></svg><svg x="8480"><use xlink:href="#a"/><use xlink:href="#b" x="-.004" y="6.488"/><use xlink:href="#4"/><use xlink:href="#5" y="2.171"/><use xlink:href="#6" y="4.342"/></svg><svg x="8560"><use xlink:href="#a"/><use xlink:href="#b" x="-.004" y="10.83"/><use xlink:href="#4"/><use xlink:href="#5" y="2.171"/><use xlink:href="#6" y="4.342"/><use xlink:href="#17" y="6.513"/><use xlink:href="#18" y="8.684"/></svg><svg x="8640"><use xlink:href="#a"/><use xlink:href="#b" x="-.004" y="10.83"/><use xlink:href="#4"/><use xlink:href="#5" y="2.171"/><use xlink:href="#6" y="4.342"/><use xlink:href="#17" y="6.513"/><use xlink:href="#18" y="8.684"/></svg><svg x="8720"><use xlink:href="#a"/><use xlink:href="#b" x="1.996" y="10.83"/><use xlink:href="#4"/><use xlink:href="#5" y="2.171"/><use xlink:href="#6" y="4.342"/><use xlink:href="#17" y="6.513"/><use xlink:href="#18" y="8.684"/><use xlink:href="#1" y="10.855"/></svg><svg x="8800"><use xlink:href="#a"/><use xlink:href="#b" x="2.996" y="10.83"/><use xlink:href="#4"/><use xlink:href="#5" y="2.171"/><use xlink:href="#6" y="4.342"/><use xlink:href="#17" y="6.513"/><use xlink:href="#18" y="8.684"/><text y="12.525" class="f">~</text><text x="2.004" y="12.525" class="g">c</text></svg><svg x="8880"><use xlink:href="#a"/><use xlink:href="#b" x="3.996" y="10.83"/><use xlink:href="#4"/><use xlink:href="#5" y="2.171"/><use xlink:href="#6" y="4.342"/><use xlink:href="#17" y="6.513"/><use xlink:href="#18" y="8.684"/><text y="12.525" class="f">~</text><text x="2.004" y="12.525" class="g">ca</text></svg><svg x="8960"><use xlink:href="#a"/><use xlink:href="#b" x="4.996" y="10.83"/><use xlink:href="#4"/><use xlink:href="#5" y="2.171"/><use xlink:href="#6" y="4.342"/><use xlink:href="#17" y="6.513"/><use xlink:href="#18" y="8.684"/><use xlink:href="#19" y="10.855"/></svg><svg x="9040"><use xlink:href="#a"/><use xlink:href="#b" x="5.996" y="10.83"/><use xlink:href="#4"/><use xlink:href="#5" y="2.171"/><use xlink:href="#6" y="4.342"/><use xlink:href="#17" y="6.513"/><use xlink:href="#18" y="8.684"/><use xlink:href="#19" y="10.855"/></svg><svg x="9120"><use xlink:href="#a"/><use xlink:href="#b" x="6.996" y="10.83"/><use xlink:href="#4"/><use xlink:href="#5" y="2.171"/><use xlink:href="#6" y="4.342"/><use xlink:href="#17" y="6.513"/><use xlink:href="#18" y="8.684"/><text y="12.525" class="f">~</text><text x="2.004" y="12.525" class="g">cat</text><text x="6.012" y="12.525" class="g">a</text></svg><svg x="9200"><use xlink:href="#a"/><use xlink:href="#b" x="7.996" y="10.83"/><use xlink:href="#4"/><use xlink:href="#5" y="2.171"/><use xlink:href="#6" y="4.342"/><use xlink:href="#17" y="6.513"/><use xlink:href="#18" y="8.684"/><text y="12.525" class="f">~</text><text x="2.004" y="12.525" class="g">cat</text><text x="6.012" y="12.525" class="g">al</text></svg><svg x="9280"><use xlink:href="#a"/><use xlink:href="#b" x="8.996" y="10.83"/><use xlink:href="#4"/><use xlink:href="#5" y="2.171"/><use xlink:href="#6" y="4.342"/><use xlink:href="#17" y="6.513"/><use xlink:href="#18" y="8.684"/><text y="12.525" class="f">~</text><text x="2.004" y="12.525" class="g">cat</text><text x="6.012" y="12.525" class="g">alt</text></svg><svg x="9360"><use xlink:href="#a"/><use xlink:href="#b" x="9.996" y="10.83"/><use xlink:href="#4"/><use xlink:href="#5" y="2.171"/><use xlink:href="#6" y="4.342"/><use xlink:href="#17" y="6.513"/><use xlink:href="#18" y="8.684"/><text y="12.525" class="f">~</text><text x="2.004" y="12.525" class="g">cat</text><text x="6.012" y="12.525" class="g">altv</text></svg><svg x="9440"><use xlink:href="#a"/><use xlink:href="#b" x="10.996" y="10.83"/><use xlink:href="#4"/><use xlink:href="#5" y="2.171"/><use xlink:href="#6" y="4.342"/><use xlink:href="#17" y="6.513"/><use xlink:href="#18" y="8.684"/><text y="12.525" class="f">~</text><text x="2.004" y="12.525" class="g">cat</text><text x="6.012" y="12.525" class="g">altvr</text></svg><svg x="9520"><use xlink:href="#a"/><use xlink:href="#b" x="11.996" y="10.83"/><use xlink:href="#4"/><use xlink:href="#5" y="2.171"/><use xlink:href="#6" y="4.342"/><use xlink:href="#17" y="6.513"/><use xlink:href="#18" y="8.684"/><text y="12.525" class="f">~</text><text x="2.004" y="12.525" class="g">cat</text><text x="6.012" y="12.525" class="g">altvrd</text></svg><svg x="9600"><use xlink:href="#a"/><use xlink:href="#b" x="12.996" y="10.83"/><use xlink:href="#4"/><use xlink:href="#5" y="2.171"/><use xlink:href="#6" y="4.342"/><use xlink:href="#17" y="6.513"/><use xlink:href="#18" y="8.684"/><text y="12.525" class="f">~</text><text x="2.004" y="12.525" class="g">cat</text><text x="6.012" y="12.525" class="g">altvrd.</text></svg><svg x="9680"><use xlink:href="#a"/><use xlink:href="#b" x="13.996" y="10.83"/><use xlink:href="#4"/><use xlink:href="#5" y="2.171"/><use xlink:href="#6" y="4.342"/><use xlink:href="#17" y="6.513"/><use xlink:href="#18" y="8.684"/><text y="12.525" class="f">~</text><text x="2.004" y="12.525" class="g">cat</text><text x="6.012" y="12.525" class="g">altvrd.j</text></svg><svg x="9760"><use xlink:href="#a"/><use xlink:href="#b" x="14.996" y="10.83"/><use xlink:href="#4"/><use xlink:href="#5" y="2.171"/><use xlink:href="#6" y="4.342"/><use xlink:href="#17" y="6.513"/><use xlink:href="#18" y="8.684"/><text y="12.525" class="f">~</text><text x="2.004" y="12.525" class="g">cat</text><text x="6.012" y="12.525" class="g">altvrd.js</text></svg><svg x="9840"><use xlink:href="#a"/><use xlink:href="#b" x="15.996" y="10.83"/><use xlink:href="#4"/><use xlink:href="#5" y="2.171"/><use xlink:href="#6" y="4.342"/><use xlink:href="#17" y="6.513"/><use xlink:href="#18" y="8.684"/><text y="12.525" class="f">~</text><text x="2.004" y="12.525" class="g">cat</text><text x="6.012" y="12.525" class="g">altvrd.jso</text></svg><svg x="9920"><use xlink:href="#a"/><use xlink:href="#b" x="16.996" y="10.83"/><use xlink:href="#4"/><use xlink:href="#5" y="2.171"/><use xlink:href="#6" y="4.342"/><use xlink:href="#17" y="6.513"/><use xlink:href="#18" y="8.684"/><use xlink:href="#20" y="10.855"/></svg><svg x="10000"><use xlink:href="#a"/><use xlink:href="#b" x="-.004" y="13.001"/><use xlink:href="#4"/><use xlink:href="#5" y="2.171"/><use xlink:href="#6" y="4.342"/><use xlink:href="#17" y="6.513"/><use xlink:href="#18" y="8.684"/><use xlink:href="#20" y="10.855"/></svg><svg x="10080"><use xlink:href="#a"/><use xlink:href="#b" x=".996" y="28.198"/><use xlink:href="#4"/><use xlink:href="#5" y="2.171"/><use xlink:href="#6" y="4.342"/><use xlink:href="#17" y="6.513"/><use xlink:href="#18" y="8.684"/><use xlink:href="#20" y="10.855"/><use xlink:href="#21" y="13.026"/><use xlink:href="#22" y="15.197"/><use xlink:href="#23" y="17.368"/><use xlink:href="#24" y="19.539"/><use xlink:href="#25" y="21.71"/><use xlink:href="#26" y="23.881"/><use xlink:href="#27" y="26.052"/><use xlink:href="#28" y="28.223"/></svg><svg x="10160"><use xlink:href="#a"/><use xlink:href="#b" x="1.996" y="30.369"/><use xlink:href="#4"/><use xlink:href="#5" y="2.171"/><use xlink:href="#6" y="4.342"/><use xlink:href="#17" y="6.513"/><use xlink:href="#18" y="8.684"/><use xlink:href="#20" y="10.855"/><use xlink:href="#21" y="13.026"/><use xlink:href="#22" y="15.197"/><use xlink:href="#23" y="17.368"/><use xlink:href="#24" y="19.539"/><use xlink:href="#25" y="21.71"/><use xlink:href="#26" y="23.881"/><use xlink:href="#27" y="26.052"/><use xlink:href="#28" y="28.223"/><use xlink:href="#1" y="30.394"/></svg><svg x="10240"><use xlink:href="#a"/><use xlink:href="#b" x="2.996" y="30.369"/><use xlink:href="#4"/><use xlink:href="#5" y="2.171"/><use xlink:href="#6" y="4.342"/><use xlink:href="#17" y="6.513"/><use xlink:href="#18" y="8.684"/><use xlink:href="#20" y="10.855"/><use xlink:href="#21" y="13.026"/><use xlink:href="#22" y="15.197"/><use xlink:href="#23" y="17.368"/><use xlink:href="#24" y="19.539"/><use xlink:href="#25" y="21.71"/><use xlink:href="#26" y="23.881"/><use xlink:href="#27" y="26.052"/><use xlink:href="#28" y="28.223"/><text y="32.064" class="f">~</text><text x="2.004" y="32.064" class="g">l</text></svg><svg x="10320"><use xlink:href="#a"/><use xlink:href="#b" x="3.996" y="30.369"/><use xlink:href="#4"/><use xlink:href="#5" y="2.171"/><use xlink:href="#6" y="4.342"/><use xlink:href="#17" y="6.513"/><use xlink:href="#18" y="8.684"/><use xlink:href="#20" y="10.855"/><use xlink:href="#21" y="13.026"/><use xlink:href="#22" y="15.197"/><use xlink:href="#23" y="17.368"/><use xlink:href="#24" y="19.539"/><use xlink:href="#25" y="21.71"/><use xlink:href="#26" y="23.881"/><use xlink:href="#27" y="26.052"/><use xlink:href="#28" y="28.223"/><use xlink:href="#29" y="30.394"/></svg><svg x="10400"><use xlink:href="#a"/><use xlink:href="#b" x="4.996" y="30.369"/><use xlink:href="#4"/><use xlink:href="#5" y="2.171"/><use xlink:href="#6" y="4.342"/><use xlink:href="#17" y="6.513"/><use xlink:href="#18" y="8.684"/><use xlink:href="#20" y="10.855"/><use xlink:href="#21" y="13.026"/><use xlink:href="#22" y="15.197"/><use xlink:href="#23" y="17.368"/><use xlink:href="#24" y="19.539"/><use xlink:href="#25" y="21.71"/><use xlink:href="#26" y="23.881"/><use xlink:href="#27" y="26.052"/><use xlink:href="#28" y="28.223"/><use xlink:href="#29" y="30.394"/></svg><svg x="10480"><use xlink:href="#a"/><use xlink:href="#b" x="5.996" y="30.369"/><use xlink:href="#4"/><use xlink:href="#5" y="2.171"/><use xlink:href="#6" y="4.342"/><use xlink:href="#17" y="6.513"/><use xlink:href="#18" y="8.684"/><use xlink:href="#20" y="10.855"/><use xlink:href="#21" y="13.026"/><use xlink:href="#22" y="15.197"/><use xlink:href="#23" y="17.368"/><use xlink:href="#24" y="19.539"/><use xlink:href="#25" y="21.71"/><use xlink:href="#26" y="23.881"/><use xlink:href="#27" y="26.052"/><use xlink:href="#28" y="28.223"/><text y="32.064" class="f">~</text><text x="2.004" y="32.064" class="g">ls</text><text x="5.01" y="32.064" class="g">r</text></svg><svg x="10560"><use xlink:href="#a"/><use xlink:href="#b" x="6.996" y="30.369"/><use xlink:href="#4"/><use xlink:href="#5" y="2.171"/><use xlink:href="#6" y="4.342"/><use xlink:href="#17" y="6.513"/><use xlink:href="#18" y="8.684"/><use xlink:href="#20" y="10.855"/><use xlink:href="#21" y="13.026"/><use xlink:href="#22" y="15.197"/><use xlink:href="#23" y="17.368"/><use xlink:href="#24" y="19.539"/><use xlink:href="#25" y="21.71"/><use xlink:href="#26" y="23.881"/><use xlink:href="#27" y="26.052"/><use xlink:href="#28" y="28.223"/><text y="32.064" class="f">~</text><text x="2.004" y="32.064" class="g">ls</text><text x="5.01" y="32.064" class="g">re</text></svg><svg x="10640"><use xlink:href="#a"/><use xlink:href="#b" x="7.996" y="30.369"/><use xlink:href="#4"/><use xlink:href="#5" y="2.171"/><use xlink:href="#6" y="4.342"/><use xlink:href="#17" y="6.513"/><use xlink:href="#18" y="8.684"/><use xlink:href="#20" y="10.855"/><use xlink:href="#21" y="13.026"/><use xlink:href="#22" y="15.197"/><use xlink:href="#23" y="17.368"/><use xlink:href="#24" y="19.539"/><use xlink:href="#25" y="21.71"/><use xlink:href="#26" y="23.881"/><use xlink:href="#27" y="26.052"/><use xlink:href="#28" y="28.223"/><text y="32.064" class="f">~</text><text x="2.004" y="32.064" class="g">ls</text><text x="5.01" y="32.064" class="g">res</text></svg><svg x="10720"><use xlink:href="#a"/><use xlink:href="#b" x="8.996" y="30.369"/><use xlink:href="#4"/><use xlink:href="#5" y="2.171"/><use xlink:href="#6" y="4.342"/><use xlink:href="#17" y="6.513"/><use xlink:href="#18" y="8.684"/><use xlink:href="#20" y="10.855"/><use xlink:href="#21" y="13.026"/><use xlink:href="#22" y="15.197"/><use xlink:href="#23" y="17.368"/><use xlink:href="#24" y="19.539"/><use xlink:href="#25" y="21.71"/><use xlink:href="#26" y="23.881"/><use xlink:href="#27" y="26.052"/><use xlink:href="#28" y="28.223"/><text y="32.064" class="f">~</text><text x="2.004" y="32.064" class="g">ls</text><text x="5.01" y="32.064" class="g">reso</text></svg><svg x="10800"><use xlink:href="#a"/><use xlink:href="#b" x="9.996" y="30.369"/><use xlink:href="#4"/><use xlink:href="#5" y="2.171"/><use xlink:href="#6" y="4.342"/><use xlink:href="#17" y="6.513"/><use xlink:href="#18" y="8.684"/><use xlink:href="#20" y="10.855"/><use xlink:href="#21" y="13.026"/><use xlink:href="#22" y="15.197"/><use xlink:href="#23" y="17.368"/><use xlink:href="#24" y="19.539"/><use xlink:href="#25" y="21.71"/><use xlink:href="#26" y="23.881"/><use xlink:href="#27" y="26.052"/><use xlink:href="#28" y="28.223"/><text y="32.064" class="f">~</text><text x="2.004" y="32.064" class="g">ls</text><text x="5.01" y="32.064" class="g">resou</text></svg><svg x="10880"><use xlink:href="#a"/><use xlink:href="#b" x="10.996" y="30.369"/><use xlink:href="#4"/><use xlink:href="#5" y="2.171"/><use xlink:href="#6" y="4.342"/><use xlink:href="#17" y="6.513"/><use xlink:href="#18" y="8.684"/><use xlink:href="#20" y="10.855"/><use xlink:href="#21" y="13.026"/><use xlink:href="#22" y="15.197"/><use xlink:href="#23" y="17.368"/><use xlink:href="#24" y="19.539"/><use xlink:href="#25" y="21.71"/><use xlink:href="#26" y="23.881"/><use xlink:href="#27" y="26.052"/><use xlink:href="#28" y="28.223"/><text y="32.064" class="f">~</text><text x="2.004" y="32.064" class="g">ls</text><text x="5.01" y="32.064" class="g">resour</text></svg><svg x="10960"><use xlink:href="#a"/><use xlink:href="#b" x="12.996" y="30.369"/><use xlink:href="#4"/><use xlink:href="#5" y="2.171"/><use xlink:href="#6" y="4.342"/><use xlink:href="#17" y="6.513"/><use xlink:href="#18" y="8.684"/><use xlink:href="#20" y="10.855"/><use xlink:href="#21" y="13.026"/><use xlink:href="#22" y="15.197"/><use xlink:href="#23" y="17.368"/><use xlink:href="#24" y="19.539"/><use xlink:href="#25" y="21.71"/><use xlink:href="#26" y="23.881"/><use xlink:href="#27" y="26.052"/><use xlink:href="#28" y="28.223"/><text y="32.064" class="f">~</text><text x="2.004" y="32.064" class="g">ls</text><text x="5.01" y="32.064" class="g">resource</text></svg><svg x="11040"><use xlink:href="#a"/><use xlink:href="#b" x="13.996" y="30.369"/><use xlink:href="#4"/><use xlink:href="#5" y="2.171"/><use xlink:href="#6" y="4.342"/><use xlink:href="#17" y="6.513"/><use xlink:href="#18" y="8.684"/><use xlink:href="#20" y="10.855"/><use xlink:href="#21" y="13.026"/><use xlink:href="#22" y="15.197"/><use xlink:href="#23" y="17.368"/><use xlink:href="#24" y="19.539"/><use xlink:href="#25" y="21.71"/><use xlink:href="#26" y="23.881"/><use xlink:href="#27" y="26.052"/><use xlink:href="#28" y="28.223"/><text y="32.064" class="f">~</text><text x="2.004" y="32.064" class="g">ls</text><text x="5.01" y="32.064" class="g">resources</text></svg><svg x="11120"><use xlink:href="#a"/><use xlink:href="#b" x="14.996" y="30.369"/><use xlink:href="#4"/><use xlink:href="#5" y="2.171"/><use xlink:href="#6" y="4.342"/><use xlink:href="#17" y="6.513"/><use xlink:href="#18" y="8.684"/><use xlink:href="#20" y="10.855"/><use xlink:href="#21" y="13.026"/><use xlink:href="#22" y="15.197"/><use xlink:href="#23" y="17.368"/><use xlink:href="#24" y="19.539"/><use xlink:href="#25" y="21.71"/><use xlink:href="#26" y="23.881"/><use xlink:href="#27" y="26.052"/><use xlink:href="#28" y="28.223"/><use xlink:href="#30" y="30.394"/></svg><svg x="11200"><use xlink:href="#a"/><use xlink:href="#b" x="-.004" y="32.54"/><use xlink:href="#4"/><use xlink:href="#5" y="2.171"/><use xlink:href="#6" y="4.342"/><use xlink:href="#17" y="6.513"/><use xlink:href="#18" y="8.684"/><use xlink:href="#20" y="10.855"/><use xlink:href="#21" y="13.026"/><use xlink:href="#22" y="15.197"/><use xlink:href="#23" y="17.368"/><use xlink:href="#24" y="19.539"/><use xlink:href="#25" y="21.71"/><use xlink:href="#26" y="23.881"/><use xlink:href="#27" y="26.052"/><use xlink:href="#28" y="28.223"/><use xlink:href="#30" y="30.394"/></svg><svg x="11280"><use xlink:href="#a"/><use xlink:href="#b" x="-.004" y="34.711"/><use xlink:href="#4"/><use xlink:href="#5" y="2.171"/><use xlink:href="#6" y="4.342"/><use xlink:href="#17" y="6.513"/><use xlink:href="#18" y="8.684"/><use xlink:href="#20" y="10.855"/><use xlink:href="#21" y="13.026"/><use xlink:href="#22" y="15.197"/><use xlink:href="#23" y="17.368"/><use xlink:href="#24" y="19.539"/><use xlink:href="#25" y="21.71"/><use xlink:href="#26" y="23.881"/><use xlink:href="#27" y="26.052"/><use xlink:href="#28" y="28.223"/><use xlink:href="#30" y="30.394"/><use xlink:href="#31" y="32.565"/></svg><svg x="11360"><use xlink:href="#a"/><use xlink:href="#b" x="-.004" y="36.882"/><use xlink:href="#4"/><use xlink:href="#5" y="2.171"/><use xlink:href="#6" y="4.342"/><use xlink:href="#17" y="6.513"/><use xlink:href="#18" y="8.684"/><use xlink:href="#20" y="10.855"/><use xlink:href="#21" y="13.026"/><use xlink:href="#22" y="15.197"/><use xlink:href="#23" y="17.368"/><use xlink:href="#24" y="19.539"/><use xlink:href="#25" y="21.71"/><use xlink:href="#26" y="23.881"/><use xlink:href="#27" y="26.052"/><use xlink:href="#28" y="28.223"/><use xlink:href="#30" y="30.394"/><use xlink:href="#31" y="32.565"/></svg></svg></g></g></svg></svg>